<?xml version="1.0" encoding="iso-8859-1"?>
<!-- Generator: Adobe Illustrator 19.0.0, SVG Export Plug-In . SVG Version: 6.00 Build 0)  -->
<svg version="1.1" id="Layer_1" xmlns="http://www.w3.org/2000/svg" xmlns:xlink="http://www.w3.org/1999/xlink" x="0px" y="0px"
	 viewBox="0 0 512.001 512.001" style="enable-background:new 0 0 512.001 512.001;" xml:space="preserve">
<g>
	<g>
		<path d="M450.932,191.166c-4.253,0-8.516,0.472-12.673,1.404c-5.631,1.262-3.929,5.092-2.667,10.723
			c1.261,5.631,1.603,10.929,7.237,9.669c2.658-0.596,5.384-0.898,8.101-0.898c22.15,0,40.171,19.709,40.171,43.935
			c0,24.225-18.02,43.933-40.171,43.933c-2.717,0-5.444-0.303-8.105-0.899c-5.629-1.262-6.711,3.162-7.974,8.793
			c-1.262,5.631-2.227,10.336,3.404,11.598c4.16,0.932,8.424,1.404,12.675,1.404c33.674,0,61.069-29.083,61.07-64.831
			C512.001,220.249,484.606,191.166,450.932,191.166z"/>
	</g>
</g>
<g>
	<g>
		<path d="M355.974,224.186c-9.08-11.203-22.549-17.628-36.952-17.628s-27.871,6.425-36.95,17.63
			c-3.633,4.484-2.943,11.063,1.54,14.696c4.484,3.634,11.063,2.946,14.696-1.539c5.093-6.285,12.643-9.889,20.714-9.889
			c8.072,0,15.623,3.605,20.717,9.89c2.065,2.547,5.08,3.87,8.123,3.87c2.311,0,4.638-0.763,6.572-2.333
			C358.919,235.249,359.608,228.669,355.974,224.186z"/>
	</g>
</g>
<g>
	<g>
		<path d="M229.927,224.188c-9.079-11.204-22.547-17.63-36.95-17.63c-14.402,0-27.872,6.425-36.952,17.628
			c-3.633,4.483-2.946,11.063,1.538,14.696c1.935,1.569,4.262,2.332,6.573,2.332c3.042,0,6.058-1.322,8.122-3.869
			c5.094-6.285,12.645-9.89,20.717-9.89c8.071,0,15.621,3.604,20.714,9.889c3.633,4.484,10.213,5.172,14.696,1.539
			S233.56,228.671,229.927,224.188z"/>
	</g>
</g>
<g>
	<g>
		<path d="M326.289,291.005H185.711c-5.771,0-10.449,4.678-10.449,10.449c0,44.519,36.219,80.737,80.738,80.737
			s80.738-36.219,80.738-80.737C336.738,295.683,332.059,291.005,326.289,291.005z M256,361.293
			c-7.138,0.001-13.982-1.264-20.334-3.567c4.509-6.536,12.025-10.678,20.334-10.678c8.309,0,15.825,4.142,20.334,10.678
			C269.982,360.028,263.137,361.293,256,361.293z M294.468,347.252c-8.196-12.874-22.552-21.103-38.468-21.103
			s-30.271,8.229-38.468,21.103c-10.524-8.853-17.968-21.256-20.459-35.35h117.853C312.435,325.996,304.991,338.399,294.468,347.252
			z"/>
	</g>
</g>
<g>
	<g>
		<path d="M256.194,53.524l0.001-0.002c-0.022,0-0.044,0.001-0.066,0.001c-0.044,0-0.088-0.001-0.132-0.001
			c-89.01,0.002-164.789,57.74-191.857,137.729c-1.024-0.054-2.048-0.086-3.073-0.086C27.395,191.166,0,220.249,0,255.998
			c0,35.748,27.395,64.831,61.069,64.831c1.032,0,2.067-0.03,3.099-0.086c8.082,23.954,20.623,46.368,37.152,65.917
			c30.457,36.022,72.665,60.402,118.848,68.654c5.679,1.009,11.108-2.768,12.124-8.448c1.015-5.681-2.768-11.109-8.448-12.124
			C137.263,419.275,74.422,344.103,74.422,256c0.002-79.893,51.87-147.898,123.699-172.119
			c-7.921,11.371-12.581,25.159-12.581,40.018c0,32.292,26.272,58.562,58.563,58.562c0.003,0,0.004,0,0.005,0
			c12.938-0.001,24.994-4.155,33.946-11.699c9.667-8.147,14.991-19.595,14.991-32.235c0-18.961-9.519-32.843-25.465-37.137
			c-5.569-1.499-11.306,1.8-12.806,7.374c-1.5,5.571,1.801,11.306,7.374,12.806c6.635,1.786,10,7.492,10,16.957
			c0,8.169-4.112,13.349-7.56,16.255c-5.189,4.373-12.462,6.78-20.48,6.78c-0.001,0-0.002,0-0.003,0
			c-20.769,0-37.667-16.896-37.667-37.664c0-27.26,22.285-49.44,49.691-49.477C356.191,74.497,437.576,155.924,437.577,256
			c0,88.221-62.94,163.409-149.659,178.784c-5.682,1.007-9.472,6.43-8.465,12.112c0.899,5.066,5.305,8.627,10.277,8.627
			c0.605,0,1.219-0.052,1.836-0.162c46.244-8.198,88.516-32.562,119.029-68.602c30.876-36.469,47.88-82.907,47.88-130.759
			C458.474,144.422,367.75,53.634,256.194,53.524z M20.898,255.998c0-23.212,16.548-42.265,37.418-43.82
			c-3.127,14.117-4.791,28.778-4.791,43.821c0,14.826,1.636,29.517,4.808,43.819C37.454,298.273,20.898,279.216,20.898,255.998z"/>
	</g>
</g>
<g>
	<g>
		<path d="M256.252,437.582l-0.245-0.003c-5.817-0.083-10.506,4.547-10.579,10.317c-0.072,5.77,4.547,10.506,10.317,10.579
			l0.245,0.003c0.045,0,0.09,0.001,0.134,0.001c5.709,0,10.374-4.592,10.445-10.318C266.641,442.39,262.023,437.654,256.252,437.582
			z"/>
	</g>
</g>
<g>
</g>
<g>
</g>
<g>
</g>
<g>
</g>
<g>
</g>
<g>
</g>
<g>
</g>
<g>
</g>
<g>
</g>
<g>
</g>
<g>
</g>
<g>
</g>
<g>
</g>
<g>
</g>
<g>
</g>
</svg>
