<svg height="512pt" viewBox="-106 0 512 512" width="512pt" xmlns="http://www.w3.org/2000/svg"><path d="m190 140c-5.519531 0-10 4.480469-10 10s4.480469 10 10 10 10-4.480469 10-10-4.480469-10-10-10zm0 0"/><path d="m110 140c-5.519531 0-10 4.480469-10 10s4.480469 10 10 10 10-4.480469 10-10-4.480469-10-10-10zm0 0"/><path d="m150 49.808594c-53.601562 0-100 43.84375-100 100.191406 0 55.140625 44.859375 100 100 100s100-44.859375 100-100c0-56.339844-46.386719-100.191406-100-100.191406zm0 180.191406c-44.113281 0-80-35.886719-80-80 0-40.109375 29.671875-73.410156 68.214844-79.125-2.054688 6.5-5.90625 13.234375-11.625 20.359375-4.25 5.296875-6.589844 11.960937-6.589844 18.765625 0 16.542969 13.457031 30 30 30 5.523438 0 10-4.476562 10-10s-4.476562-10-10-10c-5.515625 0-10-4.484375-10-10 0-2.910156 1.191406-5.007812 2.1875-6.246094 9.050781-11.273437 14.582031-22.230468 16.75-33.242187 39.917969 4.460937 71.0625 38.398437 71.0625 79.488281 0 44.113281-35.886719 80-80 80zm0 0"/><path d="m150 512c82.710938 0 150-67.289062 150-150v-212c0-82.710938-67.289062-150-150-150s-150 67.289062-150 150v205.199219c0 5.519531 4.476562 10 10 10s10-4.480469 10-10v-130.527344c14.9375 25.988281 37.5625 47.453125 65.566406 60.789063l40.402344 50.503906c9.046875 11.3125 14.03125 25.519531 14.03125 40.003906 0 22.222656 8.492188 54.273438 22.699219 69.445312 3.757812 4.011719 10.085937 4.257813 14.136719.464844 4.03125-3.773437 4.238281-10.105468.460937-14.136718-10.191406-10.882813-17.296875-38.128907-17.296875-55.773438 0-14.480469 4.980469-28.691406 14.027344-40l40.40625-50.507812c28.003906-13.335938 50.628906-34.800782 65.566406-60.789063v137.328125c0 71.683594-58.316406 130-130 130-46.199219 0-89.316406-24.855469-112.53125-64.863281-2.773438-4.777344-8.890625-6.402344-13.667969-3.632813-4.777343 2.773438-6.402343 8.890625-3.632812 13.667969 26.78125 46.15625 76.527343 74.828125 129.832031 74.828125zm8.410156-188.523438c-3.203125 4.007813-6.007812 8.296876-8.410156 12.789063-2.402344-4.492187-5.207031-8.785156-8.410156-12.792969l-21.101563-26.375c9.640625 1.921875 19.496094 2.902344 29.511719 2.902344 10.019531 0 19.871094-.980469 29.511719-2.902344zm-8.410156-43.476562c-72.425781 0-130-58.96875-130-130 0-71.683594 58.316406-130 130-130s130 58.316406 130 130c0 70.996094-57.539062 130-130 130zm0 0"/><path d="m168.210938 184.644531c-5.71875 2.691407-11.847657 4.054688-18.210938 4.054688-6.230469 0-12.238281-1.308594-17.863281-3.894531-5.019531-2.308594-10.957031-.109376-13.261719 4.910156-2.308594 5.015625-.109375 10.957031 4.90625 13.261718 8.265625 3.800782 17.085938 5.726563 26.21875 5.726563 9.332031 0 18.324219-2.007813 26.730469-5.964844 4.996093-2.351562 7.140625-8.308593 4.789062-13.304687-2.351562-4.996094-8.3125-7.144532-13.308593-4.789063zm0 0"/><path d="m14 385c-5.519531 0-10 4.480469-10 10s4.480469 10 10 10 10-4.480469 10-10-4.480469-10-10-10zm0 0"/></svg>