<?xml version="1.0" encoding="iso-8859-1"?>
<!-- Generator: Adobe Illustrator 19.0.0, SVG Export Plug-In . SVG Version: 6.00 Build 0)  -->
<svg version="1.1" id="Layer_1" xmlns="http://www.w3.org/2000/svg" xmlns:xlink="http://www.w3.org/1999/xlink" x="0px" y="0px"
	 viewBox="0 0 512.001 512.001" style="enable-background:new 0 0 512.001 512.001;" xml:space="preserve">
<g>
	<g>
		<path d="M458.369,237.948c-2.283-7.396-4.986-14.682-8.098-21.845l46.812-64.215c1.953-2.68,2.33-6.199,0.985-9.232
			c-1.344-3.032-4.204-5.116-7.504-5.468l-95.522-10.188c-2.538-19.332-19.108-34.308-39.121-34.308
			c-2.408,0-4.761,0.229-7.051,0.644L309.92,5.521c-1.344-3.032-4.204-5.116-7.503-5.468c-3.309-0.355-6.534,1.083-8.487,3.764
			L231.043,90.11c-74.46,8.753-139.023,56.555-169.159,125.628c-3.175,7.275-5.908,14.684-8.228,22.2
			c-27.24,8.125-46.468,33.498-46.468,62.372c0,28.887,19.247,54.271,46.507,62.383c26.689,86.373,107.283,149.308,202.306,149.308
			s175.617-62.935,202.306-149.31c27.262-8.108,46.507-33.487,46.507-62.382C504.814,271.438,485.598,246.075,458.369,237.948z
			 M25.756,300.31c0-16.508,8.79-31.415,22.268-39.69c-2.461,12.982-3.714,26.234-3.714,39.69c0,13.572,1.3,26.843,3.752,39.712
			C34.564,331.752,25.756,316.833,25.756,300.31z M393.076,145.462l79.528,8.482l-60.23,82.624l-32.425-73.127
			C385.889,158.866,390.496,152.646,393.076,145.462z M355.92,111.26c11.525,0,20.902,9.376,20.902,20.9s-9.376,20.9-20.902,20.9
			c-11.525,0-20.9-9.376-20.9-20.9S344.395,111.26,355.92,111.26z M299.466,27.748l32.434,73.123
			c-5.944,4.574-10.554,10.797-13.135,17.981l-79.52-8.472L299.466,27.748z M215.469,111.48l-0.701,0.962
			c-1.953,2.681-2.328,6.201-0.984,9.232c1.346,3.033,4.205,5.116,7.504,5.468l95.512,10.177
			c1.181,9.003,5.402,17.058,11.603,23.098c-9.684,10.196-28.539,27.358-56.769,41.571c-25.358,12.765-53.08,20.539-82.397,23.106
			c-33.344,2.918-68.9-0.948-105.839-11.448C109.776,161.159,158.541,123.655,215.469,111.48z M256.001,493.432
			c-106.488,0-193.122-86.634-193.122-193.122c0-24.054,4.346-47.401,12.904-69.528c31.5,9.186,62.158,13.825,91.52,13.825
			c7.947,0,15.803-0.338,23.551-1.018c31.671-2.773,61.659-11.189,89.126-25.016c33.601-16.914,55.02-37.644,64.836-48.543
			c3.524,1.035,7.248,1.601,11.103,1.601c2.411,0,4.768-0.229,7.061-0.645l38.936,87.809c1.344,3.033,4.204,5.116,7.503,5.468
			c0.331,0.036,0.659,0.052,0.987,0.052c2.946,0,5.744-1.403,7.502-3.815l19.462-26.697c7.804,21.216,11.754,43.519,11.754,66.509
			C449.123,406.798,362.488,493.432,256.001,493.432z M463.939,340.024c2.452-12.869,3.752-26.142,3.752-39.714
			c0-13.463-1.242-26.711-3.699-39.68c13.469,8.274,22.253,23.174,22.253,39.68C486.245,316.838,477.439,331.757,463.939,340.024z"
			/>
	</g>
</g>
<g>
	<g>
		<path d="M176.5,288.934c-22.198,0-40.256,18.058-40.256,40.256c0,5.127,4.156,9.284,9.284,9.284s9.284-4.157,9.284-9.284
			c0-11.959,9.729-21.688,21.688-21.688s21.689,9.728,21.689,21.688c0,5.127,4.156,9.284,9.284,9.284s9.284-4.157,9.284-9.284
			C216.757,306.992,198.698,288.934,176.5,288.934z"/>
	</g>
</g>
<g>
	<g>
		<path d="M335.491,288.934c-22.198,0-40.257,18.058-40.257,40.256c0,5.127,4.156,9.284,9.284,9.284s9.284-4.157,9.284-9.284
			c0-11.959,9.729-21.688,21.689-21.688s21.689,9.728,21.689,21.688c0,5.127,4.156,9.284,9.284,9.284s9.284-4.157,9.284-9.284
			C375.747,306.992,357.688,288.934,335.491,288.934z"/>
	</g>
</g>
<g>
	<g>
		<path d="M312.821,391.676c-3.627-3.626-9.504-3.626-13.131,0c-23.598,23.598-61.993,23.598-85.591,0
			c-3.627-3.626-9.504-3.626-13.13,0c-3.626,3.626-3.626,9.504,0,13.129c14.949,14.949,34.81,23.182,55.926,23.182
			s40.978-8.232,55.926-23.182C316.447,401.179,316.447,395.3,312.821,391.676z"/>
	</g>
</g>
<g>
	<g>
		<path d="M268.384,342.618h-24.777c-5.129,0-9.284,4.157-9.284,9.284s4.157,9.284,9.284,9.284h24.777
			c5.129,0,9.284-4.157,9.284-9.284S273.513,342.618,268.384,342.618z"/>
	</g>
</g>
<g>
</g>
<g>
</g>
<g>
</g>
<g>
</g>
<g>
</g>
<g>
</g>
<g>
</g>
<g>
</g>
<g>
</g>
<g>
</g>
<g>
</g>
<g>
</g>
<g>
</g>
<g>
</g>
<g>
</g>
</svg>
