<?xml version="1.0" encoding="iso-8859-1"?>
<!-- Generator: Adobe Illustrator 19.0.0, SVG Export Plug-In . SVG Version: 6.00 Build 0)  -->
<svg version="1.1" id="Layer_1" xmlns="http://www.w3.org/2000/svg" xmlns:xlink="http://www.w3.org/1999/xlink" x="0px" y="0px"
	 viewBox="0 0 512 512" style="enable-background:new 0 0 512 512;" xml:space="preserve">
<g>
	<g>
		<g>
			<path d="M121.361,190.3c-5.138-2.88-11.639-1.053-14.523,4.085l-0.25,0.45c-2.848,5.158-0.975,11.647,4.184,14.494
				c1.634,0.902,3.402,1.33,5.146,1.33c3.758,0,7.402-1.991,9.349-5.514l0.179-0.322C128.327,199.684,126.499,193.183,121.361,190.3
				z"/>
			<path d="M462.644,224.163c-5.673-22.112-14.895-43.241-27.441-62.617c-20.409-31.521-48.606-57.008-81.856-74.079
				c0.954-2.268,2.85-4.736,5.574-8.137c3.04-3.795,6.485-8.096,9.201-13.629c3.856-7.855,5.162-20.89-1.084-30.946
				c-3.786-6.095-11.71-13.373-27.956-13.422c-0.203,0-0.398-0.001-0.598-0.001c-45.975,0-69.111,16.401-80.742,32.423
				c-0.577-0.027-1.156-0.045-1.74-0.045c-0.586,0-1.165,0.017-1.744,0.045c-11.632-16.023-34.763-32.423-80.74-32.423
				c-0.197,0-0.399,0-0.597,0.001c-16.252,0.049-24.175,7.326-27.961,13.423c-6.245,10.056-4.936,23.091-1.08,30.944
				c2.715,5.532,6.159,9.833,9.198,13.628c2.744,3.425,4.648,5.904,5.594,8.185c-0.995,0.478-1.807,0.88-2.425,1.208
				c-53.96,28.592-92.17,78.035-106.886,135.441C21.803,226.203,0,249.262,0,277.334c0,28.074,21.809,51.135,49.374,53.17
				C73.059,422.497,156.717,490.669,256,490.669s182.941-68.172,206.628-160.164C490.191,328.469,512,305.407,512,277.332
				C512,249.263,490.199,226.206,462.644,224.163z M42.728,282.175c0.011,0.508,0.026,1.014,0.041,1.52
				c0.034,1.171,0.08,2.343,0.134,3.514c0.022,0.502,0.042,1.004,0.067,1.505c0.078,1.462,0.172,2.924,0.278,4.385
				c0.052,0.693,0.112,1.385,0.17,2.077c0.071,0.863,0.148,1.724,0.23,2.586c0.073,0.765,0.147,1.529,0.228,2.29
				c0.099,0.925,0.207,1.849,0.318,2.772c0.13,1.088,0.269,2.172,0.415,3.254c0.095,0.709,0.186,1.418,0.289,2.125
				c-13.566-3.71-23.564-16.145-23.564-30.871c0-14.725,9.999-27.159,23.564-30.87c-0.004,0.029-0.009,0.058-0.013,0.086
				c-0.175,1.212-0.339,2.425-0.496,3.642c-0.006,0.058-0.015,0.115-0.022,0.174c-0.156,1.222-0.299,2.446-0.432,3.673
				c-0.006,0.052-0.013,0.106-0.018,0.158c-0.132,1.218-0.253,2.437-0.365,3.661c-0.005,0.065-0.013,0.13-0.018,0.195
				c-0.108,1.188-0.204,2.379-0.291,3.571c-0.008,0.101-0.017,0.203-0.022,0.304c-0.082,1.141-0.155,2.285-0.217,3.431
				c-0.009,0.148-0.019,0.297-0.027,0.445c-0.059,1.092-0.107,2.187-0.149,3.282c-0.007,0.194-0.018,0.387-0.025,0.581
				c-0.036,1.044-0.064,2.092-0.084,3.139c-0.006,0.238-0.015,0.476-0.019,0.714c-0.023,1.269-0.035,2.541-0.035,3.815
				C42.665,278.947,42.691,280.561,42.728,282.175z M338.489,42.667c0.175,0,0.353,0,0.529,0.001c3.575,0.011,8.195,0.6,9.896,3.342
				c1.845,2.971,1.004,8.356,0.057,10.29c-1.683,3.426-4.121,6.471-6.701,9.693c-5.138,6.417-10.964,13.69-10.964,24.637
				c0,1.449,0.109,2.829,0.297,4.156c0.058,0.651,0.17,1.293,0.342,1.918c1.642,7.707,6.201,13.411,10.324,18.56
				c2.581,3.223,5.019,6.267,6.701,9.693c0.949,1.934,1.791,7.319-0.055,10.29c-1.704,2.744-6.324,3.333-9.897,3.344
				c-0.176,0.001-0.346,0.001-0.519,0.001c-27.246,0-47.57-6.537-59.615-19.023c8.541-6.768,14.036-17.221,14.036-28.939
				c0-11.719-5.496-22.173-14.038-28.941C290.924,49.202,311.242,42.667,338.489,42.667z M256.002,75.047
				c8.593,0,15.582,6.99,15.582,15.583c0,8.593-6.99,15.583-15.582,15.583s-15.583-6.991-15.583-15.583
				C240.419,82.037,247.41,75.047,256.002,75.047z M163.085,46.012c1.704-2.744,6.325-3.333,9.9-3.343
				c27.478-0.113,48.004,6.446,60.134,19.023c-8.54,6.767-14.035,17.22-14.035,28.938c0,11.717,5.493,22.169,14.033,28.936
				c-12.126,12.563-32.642,19.091-60.131,19.024c-3.577-0.011-8.198-0.601-9.9-3.344c-1.845-2.972-1.004-8.355-0.054-10.29
				c1.681-3.427,4.12-6.471,6.7-9.693c5.14-6.416,10.964-13.688,10.964-24.634c0-10.947-5.824-18.221-10.964-24.637
				c-2.581-3.223-5.019-6.266-6.701-9.693C162.081,54.365,161.239,48.982,163.085,46.012z M447.933,282.391
				c-0.006,0.227-0.019,0.452-0.025,0.68c-0.044,1.466-0.098,2.93-0.175,4.394c-0.011,0.2-0.027,0.397-0.037,0.595
				c-0.083,1.489-0.177,2.977-0.294,4.463c-0.017,0.21-0.038,0.418-0.057,0.627c-0.12,1.459-0.251,2.919-0.405,4.376
				c-0.031,0.301-0.069,0.6-0.102,0.899c-0.148,1.345-0.304,2.689-0.481,4.03c-0.059,0.447-0.125,0.891-0.188,1.337
				c-0.16,1.168-0.328,2.335-0.511,3.5c-0.1,0.634-0.208,1.264-0.315,1.895c-0.158,0.947-0.319,1.892-0.491,2.838
				c-0.154,0.842-0.318,1.679-0.483,2.516c-0.139,0.704-0.276,1.407-0.422,2.109c-18.191,87.074-95.548,152.684-187.947,152.684
				c-92.507,0-169.941-65.762-188.012-152.991c-0.138-0.661-0.262-1.325-0.391-1.987c-0.172-0.875-0.346-1.75-0.506-2.629
				c-0.182-1.007-0.349-2.017-0.514-3.027c-0.093-0.56-0.192-1.118-0.279-1.68c-0.21-1.353-0.401-2.708-0.582-4.066
				c-0.033-0.244-0.07-0.486-0.103-0.731c-1.07-8.246-1.612-16.571-1.612-24.886c0-1.999,0.042-3.992,0.104-5.981
				c0.02-0.661,0.051-1.323,0.078-1.983c0.057-1.343,0.125-2.685,0.208-4.023c0.046-0.753,0.093-1.505,0.148-2.257
				c0.101-1.365,0.222-2.727,0.351-4.085c0.061-0.635,0.11-1.268,0.176-1.902c0.196-1.856,0.421-3.706,0.669-5.549
				c0.102-0.765,0.222-1.528,0.334-2.29c0.177-1.204,0.361-2.407,0.56-3.604c0.133-0.804,0.273-1.608,0.417-2.411
				c0.221-1.235,0.458-2.465,0.702-3.694c0.14-0.699,0.273-1.398,0.421-2.095c9.628-45.576,35.56-86.155,73.169-114.128
				c-1.434,7.257-0.845,15.972,3.624,23.17c0.158,0.256,0.335,0.516,0.511,0.777c-7.144,6.079-13.804,12.739-19.864,19.921
				c-3.8,4.503-3.229,11.233,1.274,15.032c2.002,1.69,4.445,2.514,6.874,2.514c3.034,0,6.048-1.288,8.157-3.788
				c6.782-8.04,14.412-15.344,22.706-21.767c2.492,0.463,5.249,0.729,8.3,0.737c0.198,0.001,0.391,0.001,0.59,0.001
				c45.977,0,69.115-16.401,80.748-32.425c0.578,0.027,1.16,0.045,1.745,0.045c0.583,0,1.164-0.017,1.742-0.045
				c11.63,16.023,34.763,32.425,80.749,32.425c0.194,0,0.394-0.001,0.59-0.001c16.249-0.05,24.171-7.327,27.956-13.424
				c4.462-7.183,5.057-15.879,3.635-23.129c43.247,32.369,71.445,82.06,76.503,136.341c0.021,0.225,0.044,0.451,0.064,0.677
				c0.082,0.925,0.158,1.851,0.228,2.778c0.07,0.976,0.135,1.953,0.194,2.93c0.039,0.671,0.075,1.342,0.107,2.015
				c0.055,1.137,0.102,2.274,0.135,3.411c0.015,0.446,0.027,0.891,0.037,1.337c0.034,1.49,0.059,2.98,0.059,4.472
				C448,279.021,447.977,280.706,447.933,282.391z M467.103,308.203c0.102-0.707,0.193-1.417,0.289-2.125
				c0.146-1.077,0.284-2.157,0.413-3.239c0.111-0.93,0.222-1.863,0.32-2.795c0.081-0.757,0.155-1.516,0.227-2.275
				c0.083-0.867,0.159-1.735,0.232-2.602c0.059-0.688,0.118-1.375,0.169-2.065c0.109-1.462,0.202-2.925,0.279-4.389
				c0.027-0.499,0.045-1.001,0.068-1.501c0.054-1.173,0.099-2.347,0.134-3.521c0.015-0.506,0.029-1.009,0.042-1.516
				c0.035-1.614,0.061-3.228,0.061-4.843c0-10.391-0.75-20.703-2.226-30.869c13.561,3.712,23.557,16.145,23.557,30.869
				C490.665,292.059,480.667,304.493,467.103,308.203z"/>
			<path d="M218.054,289.678c-4.99-18.62-21.937-31.623-41.213-31.623c-19.274,0-36.222,13.004-41.213,31.623
				c-1.525,5.691,1.851,11.54,7.542,13.065c5.69,1.524,11.54-1.851,13.065-7.542c2.496-9.31,10.969-15.812,20.605-15.812
				c9.637,0,18.111,6.502,20.605,15.812c1.278,4.766,5.588,7.908,10.297,7.908c0.913,0,1.844-0.118,2.768-0.366
				C216.204,301.218,219.579,295.37,218.054,289.678z"/>
			<path d="M335.16,258.055c-19.275,0-36.222,13.004-41.214,31.623c-1.525,5.691,1.852,11.54,7.542,13.065
				c5.69,1.524,11.54-1.851,13.065-7.542c2.496-9.31,10.969-15.812,20.606-15.812s18.111,6.502,20.605,15.812
				c1.277,4.765,5.586,7.908,10.297,7.908c0.914,0,1.843-0.118,2.768-0.366c5.691-1.525,9.067-7.375,7.542-13.065
				C371.382,271.06,354.436,258.055,335.16,258.055z"/>
			<path d="M289.671,364.523c-5.693-1.523-11.54,1.851-13.065,7.542c-2.496,9.31-10.969,15.812-20.605,15.812
				c-9.638,0-18.112-6.502-20.605-15.812c-1.525-5.691-7.376-9.067-13.065-7.542c-5.691,1.525-9.067,7.374-7.542,13.065
				c4.99,18.62,21.936,31.623,41.213,31.623c19.274,0,36.222-13.004,41.213-31.623C298.738,371.897,295.361,366.047,289.671,364.523
				z"/>
		</g>
	</g>
</g>
<g>
</g>
<g>
</g>
<g>
</g>
<g>
</g>
<g>
</g>
<g>
</g>
<g>
</g>
<g>
</g>
<g>
</g>
<g>
</g>
<g>
</g>
<g>
</g>
<g>
</g>
<g>
</g>
<g>
</g>
</svg>
