<?xml version="1.0" encoding="iso-8859-1"?>
<!-- Generator: Adobe Illustrator 19.0.0, SVG Export Plug-In . SVG Version: 6.00 Build 0)  -->
<svg version="1.1" id="Capa_1" xmlns="http://www.w3.org/2000/svg" xmlns:xlink="http://www.w3.org/1999/xlink" x="0px" y="0px"
	 viewBox="0 0 512 512" style="enable-background:new 0 0 512 512;" xml:space="preserve">
<g>
	<g>
		<path d="M166.441,183.083c-4.111-3.685-10.433-3.343-14.121,0.771c-4.771,5.324-12.987,5.771-18.311,0.999
			c-3.438-3.083-3.727-8.388-0.644-11.826c1.067-1.191,2.38-1.997,3.511-2.156c0.809-0.111,1.264,0.125,1.701,0.519
			c4.11,3.684,10.432,3.342,14.121-0.771c3.687-4.112,3.341-10.435-0.771-14.121c-4.936-4.426-11.273-6.356-17.834-5.431
			c-5.83,0.819-11.377,3.877-15.619,8.61c-10.444,11.649-9.465,29.623,2.185,40.067c6.284,5.633,14.149,8.404,21.99,8.404
			c9.048,0,18.063-3.693,24.563-10.945C170.899,193.092,170.553,186.769,166.441,183.083z"/>
	</g>
</g>
<g>
	<g>
		<path d="M445.217,80.888l-39.103-67.731c-3.512-6.082-9.182-10.433-15.966-12.251c-6.786-1.816-13.87-0.884-19.952,2.627
			L258.724,67.892l-11.049,6.379c-12.141,7.01-16.957,21.89-11.749,34.513c-2.452-3.145-5.085-6.168-7.944-9.027
			c-20.052-20.052-46.804-29.411-73.116-28.091c-0.59-0.108-1.196-0.173-1.817-0.173c-13.008,0-23.591-10.583-23.591-23.592
			c0-9.304,7.569-16.872,16.875-16.872c5.537,0,11.497,2.723,11.498,8.703c0,5.522,4.478,10,10.001,9.999
			c5.522,0,9.999-4.479,9.999-10.001c-0.001-16.364-13.543-28.703-31.498-28.701c-20.332,0-36.873,16.541-36.873,36.871
			c0,12.158,5.009,23.165,13.065,31.079c-11.281,4.7-21.849,11.613-31.012,20.776c-37.543,37.543-37.617,98.576-0.236,136.221
			c-18.136,21.257-28.028,47.981-28.028,76.229v82.129C63.249,459.216,116.033,512,180.915,512H350.29
			c22.632,0,41.044-18.413,41.044-41.044v-23.91c0-22.632-18.413-41.044-41.044-41.044c-15.959,0-30.211,9.216-36.956,23.166
			h-65.087v-29.833c0-13.936-7.413-26.171-18.5-32.977v-35.017h46.543c12.867,0,24.847-7.463,30.518-19.012
			c0.059-0.118,0.114-0.237,0.167-0.357l45.501-102.698c3.919-8.104,4.476-17.25,1.565-25.777
			c-2.933-8.595-9.038-15.533-17.188-19.536c-8.148-4.003-17.372-4.594-25.968-1.661c-8.597,2.934-15.535,9.038-19.539,17.19
			c-0.067,0.136-0.131,0.273-0.191,0.413l-36.365,83.439h-52.678c-5.522,0-10,4.478-10,10c0,5.522,4.478,10,10,10h59.228
			c3.979,0,7.578-2.357,9.167-6.005l38.88-89.208c1.661-3.268,4.479-5.715,7.957-6.901c3.541-1.207,7.338-0.964,10.692,0.684
			c3.356,1.648,5.87,4.506,7.078,8.045c1.208,3.539,0.965,7.336-0.684,10.693c-0.059,0.118-0.114,0.237-0.167,0.357l-45.482,102.659
			c-2.365,4.668-7.249,7.675-12.49,7.675H173.279c-7.72,0-14-6.28-14-14c0-5.522-4.478-10-10-10s-10,4.478-10,10
			c0,18.748,15.252,33.999,34,33.999h36.468v29.331c-0.056,0-0.111-0.004-0.167-0.004H83.249v-48.462
			c0-23.567,8.293-45.858,23.495-63.546c15.604,10.298,33.877,15.83,53.004,15.83c25.776,0,50.009-10.038,68.235-28.265
			c12.197-12.198,20.91-27.429,25.196-44.046c1.38-5.349-1.837-10.802-7.185-12.181c-5.344-1.382-10.801,1.837-12.181,7.185
			c-3.395,13.16-10.302,25.229-19.974,34.899c-14.449,14.449-33.659,22.407-54.093,22.407c-20.434,0-39.644-7.958-54.093-22.407
			c-29.827-29.827-29.827-78.358,0-108.185c29.826-29.828,78.36-29.828,108.186,0c6.989,6.989,12.443,15.089,16.27,24.077
			c-0.404,0.975-0.77,1.97-1.048,3.006c-1.651,6.161-0.804,12.597,2.385,18.119c3.189,5.524,8.339,9.477,14.501,11.127
			c6.159,1.653,12.596,0.803,18.12-2.386c2.341-1.354,5.35-0.547,6.703,1.796c1.852,3.208,5.213,5.002,8.67,5.002
			c1.696,0,3.415-0.433,4.99-1.342c4.783-2.761,6.422-8.877,3.66-13.66c-3.326-5.762-8.697-9.883-15.124-11.604
			c-6.424-1.723-13.137-0.839-18.899,2.488c-1.211,0.698-2.365,0.544-2.944,0.388c-0.58-0.155-1.656-0.597-2.355-1.808
			c-0.699-1.211-0.543-2.364-0.388-2.944c0.155-0.58,0.597-1.656,1.809-2.355c11.893-6.868,15.981-22.131,9.115-34.023l-4.44-7.691
			c-2.118-3.669-0.856-8.377,2.812-10.495l2.388-1.379l25.719,44.546c1.853,3.208,5.213,5.002,8.67,5.002
			c1.696,0,3.416-0.433,4.99-1.342c4.783-2.762,6.422-8.877,3.66-13.66l-25.719-44.546l14.873-8.587l5.411,9.373
			c1.852,3.208,5.213,5.002,8.67,5.002c1.696,0,3.415-0.433,4.99-1.342c4.783-2.761,6.422-8.877,3.66-13.66l-5.411-9.373
			l12.979-7.493l5.411,9.373c1.852,3.208,5.213,5.002,8.67,5.002c1.696,0,3.415-0.433,4.99-1.342
			c4.783-2.761,6.422-8.877,3.66-13.66l-5.411-9.373l12.979-7.494l5.412,9.373c1.853,3.208,5.213,5.002,8.67,5.002
			c1.696,0,3.416-0.433,4.99-1.342c4.783-2.762,6.422-8.877,3.66-13.66l-5.411-9.373l10.021-5.786
			c3.004-1.734,6.863-0.701,8.598,2.304l39.103,67.73c1.734,3.005,0.701,6.861-2.304,8.597l-40.999,23.671
			c-4.783,2.762-6.422,8.877-3.66,13.66c1.853,3.208,5.213,5.002,8.67,5.002c1.696,0,3.415-0.433,4.99-1.342l40.999-23.671
			c6.082-3.512,10.433-9.182,12.251-15.965C449.662,94.056,448.729,86.97,445.217,80.888z M320.256,449.167L320.256,449.167
			c4.548,0,8.523-3.069,9.675-7.469c2.418-9.242,10.789-15.697,20.358-15.697c11.604,0,21.045,9.44,21.045,21.045v23.91
			c0,11.604-9.44,21.045-21.045,21.045H212.331c-11.81,0-21.417-9.607-21.417-21.417s9.607-21.417,21.417-21.417H320.256z
			 M209.58,380.668c10.293,0,18.667,8.374,18.667,18.667v29.833h-15.915c-22.838,0-41.416,18.579-41.416,41.416
			c0,7.795,2.167,15.092,5.927,21.326c-51.971-2.143-93.594-45.086-93.594-97.575v-13.666H209.58z"/>
	</g>
</g>
<g>
	<g>
		<path d="M365.424,142.787c-1.87-1.861-4.439-2.931-7.07-2.931c-2.64,0-5.22,1.07-7.079,2.931c-1.86,1.859-2.921,4.439-2.921,7.069
			s1.061,5.21,2.921,7.07c1.869,1.86,4.439,2.93,7.079,2.93c2.631,0,5.2-1.069,7.07-2.93c1.86-1.86,2.92-4.44,2.92-7.07
			S367.284,144.646,365.424,142.787z"/>
	</g>
</g>
<g>
	<g>
		<path d="M198.315,133.936c-1.859-1.86-4.439-2.93-7.069-2.93c-2.63,0-5.209,1.069-7.07,2.93c-1.86,1.86-2.93,4.44-2.93,7.07
			s1.069,5.21,2.93,7.069c1.86,1.86,4.44,2.931,7.07,2.931c2.63,0,5.21-1.07,7.069-2.931c1.86-1.859,2.931-4.439,2.931-7.069
			S200.176,135.796,198.315,133.936z"/>
	</g>
</g>
<g>
</g>
<g>
</g>
<g>
</g>
<g>
</g>
<g>
</g>
<g>
</g>
<g>
</g>
<g>
</g>
<g>
</g>
<g>
</g>
<g>
</g>
<g>
</g>
<g>
</g>
<g>
</g>
<g>
</g>
</svg>
