<?xml version="1.0"?>
<svg xmlns="http://www.w3.org/2000/svg" id="Layer_2" height="512px" viewBox="0 0 128 128" width="512px" data-name="Layer 2"><g><path d="m79.537 82.286.028-.139a58.933 58.933 0 0 1 10.886-23.665 37.141 37.141 0 0 0 7.359-22.44c.001-19.874-15.167-36.042-33.81-36.042s-33.811 16.168-33.811 36.042a37.136 37.136 0 0 0 7.359 22.439 58.946 58.946 0 0 1 10.888 23.668l.027.135a4.761 4.761 0 0 0 4.578 3.8v20.356a10.784 10.784 0 0 0 .415 21.56h1.51a10.784 10.784 0 0 0 9.034-4.9 10.784 10.784 0 0 0 9.034 4.9h1.51a10.784 10.784 0 0 0 .416-21.56v-20.353a4.76 4.76 0 0 0 4.577-3.801zm-27.644-.7-.027-.135a62.414 62.414 0 0 0 -11.514-25.066 33.66 33.66 0 0 1 -6.662-20.343c-.001-17.942 13.597-32.542 30.31-32.542s30.311 14.6 30.311 32.542a33.665 33.665 0 0 1 -6.662 20.344 62.4 62.4 0 0 0 -11.514 25.066l-.028.139a1.254 1.254 0 0 1 -1.225 1h-21.763a1.255 1.255 0 0 1 -1.226-1.002zm29.935 35.627a7.292 7.292 0 0 1 -7.284 7.284h-1.51a7.292 7.292 0 0 1 -7.284-7.284 1.75 1.75 0 0 0 -3.5 0 7.292 7.292 0 0 1 -7.284 7.284h-1.51a7.284 7.284 0 1 1 0-14.567h1.334a1.75 1.75 0 0 0 1.75-1.75v-22.086h14.919v22.089a1.75 1.75 0 0 0 1.75 1.75h1.334a7.292 7.292 0 0 1 7.285 7.283z" data-original="#000000" class="active-path" data-old_color="#000000" fill="#FFFFFF"/><path d="m64 13.5c11.2 0 20.311 10.112 20.311 22.542a1.75 1.75 0 0 0 3.5 0c0-14.359-10.682-26.042-23.811-26.042a1.75 1.75 0 0 0 0 3.5z" data-original="#000000" class="active-path" data-old_color="#000000" fill="#FFFFFF"/></g> </svg>
