<svg height="512pt" viewBox="-151 0 511 512" width="512pt" xmlns="http://www.w3.org/2000/svg"><path d="m52.570312 303.730469c0 4.792969-3.886718 8.675781-8.679687 8.675781-4.789063 0-8.675781-3.882812-8.675781-8.675781s3.886718-8.679688 8.675781-8.679688c4.792969 0 8.679687 3.886719 8.679687 8.679688zm0 0"/><path d="m52.570312 338.441406c0 4.792969-3.886718 8.675782-8.679687 8.675782-4.789063 0-8.675781-3.882813-8.675781-8.675782 0-4.792968 3.886718-8.679687 8.675781-8.679687 4.792969 0 8.679687 3.886719 8.679687 8.679687zm0 0"/><path d="m174.15625 303.730469c0 4.792969-3.882812 8.675781-8.675781 8.675781s-8.679688-3.882812-8.679688-8.675781 3.886719-8.679688 8.679688-8.679688 8.675781 3.886719 8.675781 8.679688zm0 0"/><path d="m174.15625 338.441406c0 4.792969-3.882812 8.675782-8.675781 8.675782s-8.679688-3.882813-8.679688-8.675782c0-4.792968 3.886719-8.679687 8.679688-8.679687s8.675781 3.886719 8.675781 8.679687zm0 0"/><path d="m78.605469 0c-4.800781 0-8.679688 3.878906-8.679688 8.679688v112.8125c0 11.296874-7.28125 20.84375-17.355469 24.4375v-137.25c0-4.800782-3.878906-8.679688-8.679687-8.679688-4.796875 0-8.679687 3.878906-8.679687 8.679688v137.25c-10.074219-3.59375-17.355469-13.140626-17.355469-24.4375v-112.8125c0-4.800782-3.878907-8.679688-8.675781-8.679688-4.800782 0-8.679688 3.878906-8.679688 8.679688v112.8125c0 20.949218 14.933594 38.476562 34.710938 42.511718v88.890625c-14.925782 3.878907-26.035157 17.347657-26.035157 33.476563v190.917968c0 19.144532 15.570313 34.710938 34.710938 34.710938 19.144531 0 34.710937-15.566406 34.710937-34.710938v-190.917968c0-16.128906-11.105468-29.597656-26.03125-33.476563v-88.890625c19.777344-4.035156 34.710938-21.554687 34.710938-42.511718v-112.8125c.003906-4.800782-3.875-8.679688-8.671875-8.679688zm-17.355469 286.371094v190.917968c0 9.570313-7.785156 17.355469-17.359375 17.355469-9.570313 0-17.355469-7.785156-17.355469-17.355469v-190.917968c0-9.570313 7.785156-17.355469 17.355469-17.355469 9.574219 0 17.359375 7.785156 17.359375 17.355469zm0 0"/><path d="m190.914062 14.597656c-9.769531-9.824218-23.769531-14.597656-42.789062-14.597656-4.800781 0-8.679688 3.878906-8.679688 8.679688v251.660156c0 .945312.257813 1.8125.539063 2.664062-5.667969 6.175782-9.21875 14.335938-9.21875 23.367188v190.917968c0 19.140626 15.570313 34.710938 34.710937 34.710938 19.144532 0 34.710938-15.570312 34.710938-34.710938v-190.917968c0-11.113282-5.34375-20.921875-13.5-27.28125 22.136719-28.671875 22.195312-71.082032 22.179688-132.738282l.050781-19.144531c.210937-41.410156.394531-74.117187-18.003907-92.609375zm-8.078124 462.691406c0 9.570313-7.785157 17.355469-17.359376 17.355469-9.570312 0-17.355468-7.785156-17.355468-17.355469v-190.917968c0-9.570313 7.785156-17.355469 17.355468-17.355469 9.574219 0 17.359376 7.785156 17.359376 17.355469zm8.730468-370.167968-.054687 19.238281c.019531 61.039063-.042969 101.902344-21.617188 125.75-1.457031-.191406-2.90625-.449219-4.414062-.449219-3.011719 0-5.882813.503906-8.679688 1.230469v-235.023437c9.632813 1.074218 16.863281 3.992187 21.808594 8.964843 13.300781 13.382813 13.148437 42.902344 12.957031 80.289063zm0 0"/></svg>