<?xml version="1.0"?>
<svg xmlns="http://www.w3.org/2000/svg" height="512px" viewBox="-61 0 512 512" width="512px"><g><path d="m335.039062 122.171875c-40.503906-78.785156-90.367187-122.171875-140.402343-122.171875-50.03125 0-99.894531 43.386719-140.402344 122.171875-32.441406 63.09375-54.234375 141.535156-54.234375 195.191406 0 107.320313 87.3125 194.636719 194.636719 194.636719 107.328125 0 194.640625-87.3125 194.640625-194.636719-.003906-53.65625-21.796875-132.097656-54.238282-195.191406zm-140.402343 359.382813c-90.535157 0-164.195313-73.65625-164.195313-164.191407 0-49.25 20.441406-122.097656 50.867188-181.269531 34.519531-67.140625 75.828125-105.648438 113.328125-105.648438 37.503906 0 78.808593 38.507813 113.332031 105.648438 30.421875 59.175781 50.863281 132.019531 50.863281 181.269531 0 90.535157-73.65625 164.191407-164.195312 164.191407zm0 0" data-original="#000000" class="active-path" data-old_color="#000000" fill="#FFFFFF"/></g> </svg>
