<?xml version="1.0" encoding="iso-8859-1"?>
<!-- Generator: Adobe Illustrator 21.0.0, SVG Export Plug-In . SVG Version: 6.00 Build 0)  -->
<svg xmlns="http://www.w3.org/2000/svg" xmlns:xlink="http://www.w3.org/1999/xlink" version="1.1" id="Capa_1" x="0px" y="0px" viewBox="0 0 512.019 512.019" style="enable-background:new 0 0 512.019 512.019;" xml:space="preserve" width="512" height="512">
<g>
	<path d="M345.293,221.167c-6.705,0-12.159,5.455-12.159,12.16c0,6.705,5.454,12.159,12.159,12.159   c6.705,0,12.16-5.455,12.16-12.159C357.453,226.622,351.998,221.167,345.293,221.167z"/>
	<path d="M415.025,221.167c-6.705,0-12.16,5.455-12.16,12.16c0,6.705,5.455,12.159,12.16,12.159s12.159-5.455,12.159-12.159   C427.184,226.622,421.73,221.167,415.025,221.167z"/>
	<path d="M96.994,221.167c-6.705,0-12.16,5.455-12.16,12.16c0,6.705,5.455,12.159,12.16,12.159c6.705,0,12.159-5.455,12.159-12.159   C109.153,226.622,103.699,221.167,96.994,221.167z"/>
	<path d="M166.726,221.167c-6.705,0-12.16,5.455-12.16,12.16c0,6.705,5.455,12.159,12.16,12.159c6.705,0,12.16-5.455,12.16-12.159   C178.885,226.622,173.431,221.167,166.726,221.167z"/>
	<path d="M507.633,393.759c-1.035-4.01-5.121-6.425-9.137-5.387c-4.011,1.036-6.423,5.126-5.387,9.137   c1.858,7.196,3.022,14.588,3.479,22.057H354.581c-1.949-0.83-4.016-1.435-6.165-1.794c0.001-0.171,0.007-0.341,0.007-0.513   c0-33.369-17.34-62.763-43.48-79.651c11.474-9.712,24.536-17.017,38.568-21.643c5.496,15.091,19.997,25.663,36.649,25.663   c16.63,0,31.115-10.543,36.628-25.602c27.759,9.178,51.534,28.615,65.947,55.147c2.081,3.832,7.141,5.069,10.768,2.648   c3.179-2.122,4.235-6.454,2.414-9.808c-5.868-10.801-13.114-20.555-21.446-29.107c6.931-5.175,12.912-13.06,17.856-23.578   c19.619-41.736,19.572-121.474,5.771-157.476c-9.194-23.984-25.227-44.355-46.363-58.91c-21.15-14.565-45.9-22.264-71.574-22.264   c-30.64,0-60.209,11.139-83.262,31.365c-3.113,2.732-3.423,7.47-0.691,10.584c2.731,3.114,7.47,3.423,10.584,0.691   c20.315-17.824,46.372-27.64,73.369-27.64c22.621,0,44.43,6.784,63.067,19.618c18.629,12.829,32.76,30.784,40.864,51.925   c12.505,32.624,12.498,107.777-5.341,145.726c-4.527,9.629-9.798,16.174-15.707,19.542c-12.842-10.405-27.548-18.335-43.371-23.31   c30.938-14.8,52.361-46.41,52.361-82.933v-15.173c0-3.652-2.63-6.773-6.23-7.392c-37.126-6.383-62.82-44.06-63.07-44.432   c-3.279-4.905-10.956-4.123-13.181,1.337c-0.176,0.43-18.389,42.987-93.769,42.987c-4.143,0-7.5,3.358-7.5,7.5v15.173   c0,36.499,21.395,68.092,52.301,82.904c-15.701,4.926-30.367,12.795-43.32,23.333c-5.905-3.37-11.173-9.913-15.697-19.537   c-17.838-37.949-17.845-113.102-5.34-145.725c3.084-8.045,7.094-15.721,11.917-22.814c2.329-3.425,1.44-8.09-1.985-10.419   c-3.424-2.328-8.09-1.441-10.419,1.985c-5.473,8.048-10.02,16.755-13.519,25.878c-13.8,36.001-13.848,115.739,5.772,157.475   c2.499,5.316,5.268,9.944,8.285,13.906c-6.566-1.614-13.397-2.546-20.415-2.706c-0.748-5.871-1.259-14.179,0.166-20.652   c0.891-4.045-1.667-8.046-5.712-8.937c-4.043-0.89-8.046,1.667-8.937,5.712c-1.395,6.336-1.433,13.367-1.028,19.301   c-11.778-7.544-14.032-18.947-14.16-19.649c-0.689-4.059-4.526-6.808-8.6-6.145c-4.088,0.666-6.863,4.52-6.197,8.608   c0.132,0.814,2.579,14.705,15.24,25.667c-2.33,0.695-4.622,1.476-6.874,2.341c-14.13-12.694-30.588-22.037-48.348-27.613   c15.706-7.522,28.954-19.38,38.191-34.012c3.83,1.975,8.108,3.04,12.494,3.04c15.079,0,27.347-12.268,27.347-27.347   c0-5.841-1.847-11.256-4.979-15.704c19.574-56.836,10.939-90.129,0.041-108.144c-10.871-17.969-28.934-29.52-50.861-32.524   c-15.593-2.137-28.348,2.025-35.499,5.29c-10.429-12.417-22.3-19.081-46.92-19.081c-28.256,0-68.318,14.655-89.508,46.832   c-23.511,35.701-14.992,77.68-2.732,108.005c-2.972,4.375-4.711,9.651-4.711,15.327c0,15.079,12.268,27.347,27.348,27.347   c4.385,0,8.664-1.066,12.493-3.04c9.225,14.614,22.452,26.461,38.132,33.985c-20.819,6.525-39.779,18.232-55.38,34.486   c-2.604,2.713-2.769,7.082-0.366,9.978c2.821,3.398,8.128,3.596,11.188,0.409c13.434-13.997,29.681-24.182,47.516-30.052   c5.493,15.097,19.995,25.675,36.652,25.675c16.645,0,31.14-10.563,36.641-25.643c13.212,4.359,25.579,11.086,36.558,19.959   c-27.626,16.575-46.157,46.82-46.157,81.315c0,0.172,0.006,0.342,0.007,0.513c-2.149,0.359-4.216,0.964-6.165,1.794H15.433   c1.108-17.95,6.34-35.44,15.298-50.977c2.069-3.588,0.838-8.175-2.75-10.244c-3.587-2.068-8.175-0.838-10.244,2.751   C6.271,380.981,0.211,403.69,0.211,426.77v0.296c0,4.142,3.358,7.5,7.5,7.5h130.338c-1.266,3.147-1.971,6.579-1.971,10.174   c0,15.079,12.268,27.347,27.347,27.347c3.95,0,7.792-0.847,11.307-2.453c16.995,25.528,46.029,42.385,78.929,42.385   c32.901,0,61.935-16.857,78.93-42.385c3.515,1.606,7.357,2.453,11.307,2.453c15.079,0,27.348-12.268,27.348-27.347   c0-3.595-0.704-7.027-1.971-10.174h135.032c4.143,0,7.5-3.358,7.5-7.5v-0.296C511.808,415.593,510.404,404.486,507.633,393.759z    M222.097,255.189c-1.972,0-3.85-0.47-5.546-1.333c3.097-7.339,5.263-15.162,6.359-23.32c6.429,0.422,11.534,5.772,11.534,12.306   C234.445,249.65,228.905,255.189,222.097,255.189z M34.246,127.76c18.136-27.539,52.617-40.082,76.98-40.082   c23.792,0,30.552,6.839,38.857,18.104c2.37,3.216,6.879,3.984,10.21,1.781c0.131-0.088,13.385-8.692,31.316-6.232   c17.354,2.377,31.582,11.408,40.063,25.427c12.628,20.875,12.682,52.065,0.259,90.573c-2.569-0.994-5.323-1.612-8.197-1.783   v-12.475c0-3.652-2.63-6.773-6.229-7.392c-37.127-6.383-62.821-44.06-63.071-44.432c-3.27-4.894-10.933-4.182-13.162,1.29   c-0.045,0.107-4.703,10.854-18.377,21.433c-18.264,14.131-44.34,21.6-75.41,21.6c-4.142,0-7.5,3.358-7.5,7.5v12.475   c-3.097,0.184-6.056,0.885-8.793,2.019C17.603,181.68,18.614,151.497,34.246,127.76z M41.623,255.189   c-6.809,0-12.348-5.539-12.348-12.347c0-6.534,5.105-11.884,11.534-12.306c1.095,8.153,3.259,15.971,6.353,23.306   C45.456,254.708,43.565,255.189,41.623,255.189z M55.174,223.355c-0.003-0.036-0.005-0.072-0.008-0.107   c-0.107-1.655-0.18-3.319-0.18-5.001v-7.806c56.892-2.037,83.318-27.061,93.989-41.73c10.322,12.264,31.442,33.275,59.76,40.432   v9.104c0,1.682-0.074,3.346-0.18,5.001c-0.003,0.036-0.005,0.072-0.008,0.108c-2.641,40.013-36.016,71.765-76.686,71.765   C91.19,295.12,57.815,263.369,55.174,223.355z M131.86,326.629c-9.748,0-18.294-5.886-22.015-14.448   c7.174-1.358,14.534-2.06,22.015-2.06c7.461,0,14.822,0.704,22.008,2.073C150.144,320.749,141.603,326.629,131.86,326.629z    M380.159,326.629c-9.744,0-18.288-5.882-22.012-14.44c7.181-1.364,14.542-2.069,22.012-2.069c7.467,0,14.823,0.727,21.995,2.102   C398.423,320.762,389.89,326.629,380.159,326.629z M303.284,218.246v-7.806c56.892-2.037,83.319-27.061,93.989-41.73   c10.322,12.264,31.443,33.275,59.76,40.432v9.104c0,42.389-34.485,76.874-76.874,76.874S303.284,260.635,303.284,218.246z    M163.425,457.087c-6.808,0-12.347-5.539-12.347-12.347c0-5.688,3.871-10.476,9.112-11.903c1.373,8.268,3.816,16.178,7.188,23.58   C166.116,456.849,164.787,457.087,163.425,457.087z M253.662,497.019c-43.98,0-79.76-35.78-79.76-79.76s35.78-79.76,79.76-79.76   c43.98,0,79.76,35.78,79.76,79.76S297.642,497.019,253.662,497.019z M343.899,457.087c-1.361,0-2.69-0.238-3.952-0.67   c3.372-7.402,5.815-15.313,7.188-23.58c5.241,1.427,9.112,6.216,9.112,11.903C356.247,451.548,350.708,457.087,343.899,457.087z"/>
	<path d="M218.796,414.066c-6.705,0-12.16,5.455-12.16,12.16c0,6.705,5.455,12.159,12.16,12.159c6.705,0,12.16-5.455,12.16-12.159   C230.956,419.52,225.502,414.066,218.796,414.066z"/>
	<path d="M288.528,414.066c-6.705,0-12.159,5.455-12.159,12.16c0,6.705,5.454,12.159,12.159,12.159   c6.705,0,12.16-5.455,12.16-12.159C300.688,419.52,295.233,414.066,288.528,414.066z"/>
	<path d="M236.435,72.339c11.678,10.059,23.785,15.996,24.295,16.244c2.052,0.998,4.507,0.998,6.559,0   c0.51-0.248,12.617-6.185,24.295-16.244c16.509-14.221,24.122-29.869,22.018-45.254c-2.521-18.422-15.599-26.009-26.998-26.967   c-8.65-0.73-16.84,1.998-22.594,6.998c-5.753-5-13.946-7.726-22.594-6.998c-11.399,0.958-24.477,8.545-26.997,26.967   C212.313,42.47,219.927,58.118,236.435,72.339z M229.279,29.118c1.557-11.379,9.059-13.689,13.392-14.053   c0.486-0.041,0.97-0.061,1.451-0.061c5.955,0,11.388,3.056,12.73,7.337c0.98,3.128,3.878,5.257,7.157,5.257   c3.278,0,6.177-2.129,7.157-5.257c1.449-4.627,7.681-7.826,14.181-7.276c4.333,0.364,11.836,2.674,13.393,14.053   c2.638,19.286-21.733,37.063-34.73,44.259C251.007,66.175,226.641,48.401,229.279,29.118z"/>
</g>















</svg>
