<?xml version="1.0"?>
<svg xmlns="http://www.w3.org/2000/svg" height="512px" viewBox="-2 0 511 511.99955" width="512px" class=""><g><path d="m96.324219 347.601562c-12.617188-12.585937-33.113281-12.585937-45.707031 0-6.097657 6.097657-9.472657 14.222657-9.472657 22.863282 0 8.632812 3.375 16.757812 9.472657 22.855468 6.304687 6.304688 14.578124 9.449219 22.851562 9.449219 8.277344 0 16.554688-3.144531 22.855469-9.449219 6.097656-6.097656 9.472656-14.222656 9.472656-22.855468 0-8.640625-3.363281-16.753906-9.472656-22.863282zm-15.234375 30.480469c-4.214844 4.214844-11.023438 4.214844-15.234375 0-2.027344-2.035156-3.160157-4.738281-3.160157-7.617187 0-2.886719 1.121094-5.582032 3.160157-7.617188 2.101562-2.105468 4.859375-3.148437 7.617187-3.148437 2.757813 0 5.515625 1.046875 7.617188 3.148437v.011719c2.039062 2.023437 3.15625 4.71875 3.15625 7.605469 0 2.867187-1.121094 5.570312-3.15625 7.617187zm0 0" data-original="#000000" class="active-path" data-old_color="#000000" fill="#FFFFFF"/><path d="m508.167969 147.46875c-1.628907-7.917969-6.90625-14.578125-14.105469-17.753906-4.859375-2.167969-6.667969-7.125-9.09375-15.019532-2.46875-8.105468-6.960938-23.082031-23.921875-21.640624-5.742187.570312-10.785156-1.066407-14.234375-4.5-3.4375-3.4375-5.042969-8.503907-4.503906-14.234376 1.132812-12.242187-2.671875-23.417968-10.730469-31.488281-7.605469-7.59375-18.003906-11.269531-29.976563-10.859375-.140624-.679687-.28125-1.433594-.398437-2.070312-1.542969-8.148438-4.71875-24.933594-28.144531-28.09375-4.136719-1.3125-15.484375-4.050782-24.902344 1.726562-4.492188 2.769532-10.085938 8.425782-11.261719 20.761719l-.246093 67.488281h-110.015626c-17.132812 0-33.75 2.078125-49.804687 5.710938-5.753906-21.683594-15.28125-42.195313-28.878906-60.96875l-5.34375-7.378906-8.167969 4.027343c-2.046875 1.015625-50.308594 25.355469-63.617188 67.21875-5.386718 16.925781-4.367187 34.136719 3.003907 51.289063-44.941407 41.355468-73.324219 100.457031-73.324219 166.199218v194.117188h192.621094c60.804687 0 117.957031-23.675781 160.949218-66.679688 5.214844-5.214843 10.128907-10.664062 14.773438-16.277343 4.742188.386719 9.65625.664062 14.9375.664062 30.394531 0 69.046875-7.453125 107.460938-35.289062l7.378906-5.34375-4.050782-8.167969c-1.238281-2.511719-28.941406-57.097656-76.128906-65.78125 1.359375-10.128906 2.308594-20.355469 2.296875-30.742188v-109.371093l68.066407.636719.863281-.140626c4.902343-.753906 9.300781-3.09375 12.75-6.777343l.03125-.03125c5.167969-5.582031 7.304687-13.523438 5.71875-21.230469zm-416.875-10.578125c-3.117188-10.117187-3.082031-19.988281.054687-29.878906 7.625-24.105469 31.828125-41.898438 44.621094-49.878907 9.253906 14.417969 16.0625 29.824219 20.351562 45.976563-9.738281 3.203125-19.113281 7.144531-28.230468 11.585937-2.207032 1.066407-4.460938 2.058594-6.625 3.199219-3.019532 1.597657-5.917969 3.351563-8.859375 5.066407-3.003907 1.757812-5.988281 3.523437-8.910157 5.417968-2.652343 1.726563-5.226562 3.523438-7.789062 5.355469-1.53125 1.074219-3.125 2.035156-4.613281 3.15625zm323.355469 199.339844c27.164062 5.078125 47.328124 32.347656 55.957031 46.195312-31.097657 20.023438-61.863281 25.667969-86.515625 25.722657 14.015625-21.539063 24.058594-45.222657 30.0625-70.160157.152344-.59375.359375-1.164062.496094-1.757812zm72.003906-182.152344-87.464844-.800781v131.117187c0 12.464844-1.25 24.726563-3.394531 36.742188l-.28125 1.519531c-.613281 3.253906-1.355469 6.496094-2.132813 9.71875-.332031 1.390625-.675781 2.769531-1.03125 4.148438-7.082031 26.960937-19.675781 52.542968-36.984375 74.652343l-4.167969 5.324219c-3.921874 4.675781-7.984374 9.246094-12.347656 13.605469-38.921875 38.921875-90.675781 60.367187-145.714844 60.367187h-171.082031v-172.578125c0-62.59375 28.328125-118.636719 72.753907-156.203125 16.84375-14.222656 35.539062-25.492187 55.839843-33.585937.160157-.0625.320313-.105469.472657-.167969 6.691406-2.652344 13.554687-4.957031 20.582031-6.910156 17.507812-4.890625 35.882812-7.714844 54.941406-7.714844h131.480469l.28125-87.917969c.226562-2.304687.796875-3.359375 1.054687-3.511719 1.066407-.667968 4.796875-.398437 7.296875.515626l2.691406.667968c8.730469.96875 9.203126 3.449219 10.582032 10.839844 1.121094 5.832031 4.074218 21.28125 22.078125 19.65625 5.722656-.539062 10.785156 1.066406 14.246093 4.503906 3.4375 3.445313 5.042969 8.511719 4.503907 14.242188-1.132813 12.242187 2.671875 23.417968 10.730469 31.476562 7.824218 7.8125 18.671874 11.570313 30.578124 10.808594.722657 1.5625 1.585938 4.371094 2.210938 6.390625 2.683594 8.789063 6.746094 22.085937 20.9375 28.414063 1.023438.449218 1.574219 1.550781 1.746094 2.421874.097656.445313.226562 1.542969-.421875 2.242188zm1.464844 1.644531v-.300781l6.429687 5.960937zm0 0" data-original="#000000" class="active-path" data-old_color="#000000" fill="#FFFFFF"/><path d="m73.46875 268.25v21.554688c83.1875 0 150.855469 67.667968 150.855469 150.851562h21.550781c0-95.058594-77.34375-172.40625-172.40625-172.40625zm0 0" data-original="#000000" class="active-path" data-old_color="#000000" fill="#FFFFFF"/><path d="m108.542969 233.1875v21.550781c83.1875 0 150.855469 67.671875 150.855469 150.855469h21.550781c0-95.070312-77.34375-172.40625-172.40625-172.40625zm0 0" data-original="#000000" class="active-path" data-old_color="#000000" fill="#FFFFFF"/><path d="m142.042969 199.679688v21.550781c83.1875 0 150.855469 67.667969 150.855469 150.855469h21.550781c0-95.0625-77.332031-172.40625-172.40625-172.40625zm0 0" data-original="#000000" class="active-path" data-old_color="#000000" fill="#FFFFFF"/><path d="m177.117188 164.605469v21.550781c83.1875 0 150.855468 67.667969 150.855468 150.855469h21.550782c0-95.0625-77.335938-172.40625-172.40625-172.40625zm0 0" data-original="#000000" class="active-path" data-old_color="#000000" fill="#FFFFFF"/></g> </svg>
