<?xml version="1.0"?>
<svg xmlns="http://www.w3.org/2000/svg" xmlns:xlink="http://www.w3.org/1999/xlink" version="1.1" id="Layer_1" x="0px" y="0px" viewBox="0 0 504.091 504.091" style="enable-background:new 0 0 504.091 504.091;" xml:space="preserve" width="512px" height="512px" class="hovered-paths"><g><path style="fill:#FFFFFF" d="M432.67,379.116c-135.483,71.68-157.538,126.425-267.815,115.791  C32.522,463.399,48.276,346.82,6.135,166.045C-36.401-15.124,149.495-34.029,339.723,75.46  C496.867,165.651,567.759,307.436,432.67,379.116z" data-original="#F2F2F2" class="" data-old_color="#F2F2F2"/><path style="fill:#000000" d="M236.141,157.38c52.382,0,94.523,42.142,94.523,94.523s-42.142,94.523-94.523,94.523  s-94.523-42.142-94.523-94.523C141.618,199.916,184.153,157.38,236.141,157.38z" data-original="#EFC75E" class="" data-old_color="#EFC75E"/><path style="fill:#000000" d="M259.772,204.642c12.997,0,23.631,10.634,23.631,23.631s-10.634,23.631-23.631,23.631  c-12.997,0-23.631-10.634-23.631-23.631S246.775,204.642,259.772,204.642z" data-original="#F4D88F" class="" data-old_color="#F4D88F"/><path style="fill:#000000" d="M251.895,330.673c-52.382,0-94.523-42.142-94.523-94.523c0-22.055,7.483-42.535,20.48-58.289  c-22.055,17.329-36.234,44.111-36.234,74.043c0,52.382,42.142,94.523,94.523,94.523c29.932,0,57.108-14.178,74.043-36.234  C294.43,323.19,273.95,330.673,251.895,330.673z" data-original="#DCB757" class="hovered-path active-path" data-old_color="#DCB757"/></g> </svg>
