<svg xmlns="http://www.w3.org/2000/svg" width="420" height="155" viewBox="0 0 420 155">
  <g fill="none" fill-rule="evenodd">
    <path fill="#FFF" d="M171.129701,95.6992812 L15.7779157,95.6992812 C7.0636515,95.6992812 0,88.7371585 0,80.148148 L0,15.5511332 C0,6.96212271 7.0636515,0 15.7779157,0 L171.129701,0 C179.843966,0 186.907617,6.96212271 186.907617,15.5511332 L186.907617,80.148148 C186.907617,88.7371585 179.843966,95.6992812 171.129701,95.6992812"/>
    <path fill="#FFC629" d="M170.663889 5.20962962L16.378933 5.20962962C11.0459974 5.20962962 6.73498538 9.45389274 6.71799378 14.676681L180.313905 14.676681C180.302982 9.45389274 175.99197 5.20962962 170.663889 5.20962962M16.3201906 90.4785265L170.614856 90.4785265C175.933227 90.4785265 180.255162 86.2402446 180.255162 81.0162601L6.6750293 81.0162601C6.68716616 86.2402446 11.003033 90.4785265 16.3201906 90.4785265"/>
    <path fill="#EA0029" d="M40.859947,76.2936202 L6.71775104,76.2936202 L6.71775104,19.4159487 L126.42237,19.4159487 C123.677013,19.9997143 121.123418,23.7068652 120.759312,24.1614368 L107.683061,40.5080702 L102.344057,33.7421311 L96.3508766,41.5966496 L101.56123,48.1999 L93.7584437,58.0270199 L89.1015312,63.8945821 C88.5177483,64.6123267 88.1961216,65.4556766 88.0990267,66.3097927 C87.9400339,67.8876346 88.5626547,69.5013637 89.9256239,70.5492708 C91.176934,71.5038712 92.7365202,71.7538855 94.1468232,71.3902283 C95.1250539,71.1294477 96.0231815,70.5755881 96.6955634,69.7286495 L99.3074153,66.435398 L99.3790228,66.3420912 L107.683061,55.9024959 L118.680268,69.7430044 C120.324813,71.8041277 123.359027,72.1641962 125.455063,70.5492708 C127.548671,68.9510928 127.928554,65.964079 126.28401,63.9029558 L113.803679,48.1999 L129.086411,28.5384826 C136.408577,20.1265158 143.763513,19.4434622 147.343887,19.4159487 L180.340363,19.4159487 L180.340363,76.2936202 L60.2510054,76.2936202 C63.0825345,75.9012531 65.8024044,71.9823676 66.1580143,71.5098524 L79.2585391,55.1644151 L84.6582274,61.9722228 L90.6599038,54.1177043 L85.3682336,47.4761741 L93.1940798,37.6406805 L97.8352144,31.781492 C98.4105015,31.0589625 98.7454788,30.2215937 98.8243683,29.3638889 C98.9991391,27.7884395 98.3631677,26.1711217 97.0220449,25.125607 C95.7804443,24.1781841 94.2135759,23.9054412 92.7996319,24.2846496 C91.8262559,24.5454301 90.9159915,25.1016822 90.2448232,25.9414434 L87.634185,29.2275175 L87.5467997,29.3351792 L79.2585391,39.7795595 L68.245554,25.9306772 C66.6107192,23.8755352 63.5716499,23.5130741 61.4804692,25.125607 C59.3832201,26.7261775 59.0057638,29.7131913 60.6527354,31.7671371 L73.1318531,47.4761741 L57.857617,67.130414 C51.2976451,74.6643399 44.7146132,76.0579607 40.859947,76.2936202 M59.8031554,47.8912698 C59.8031554,60.9925014 49.0013515,71.6007667 35.6945001,71.6007667 C22.3755119,71.6007667 11.5834175,60.9925014 11.5834175,47.8912698 C11.5834175,34.8079818 22.3755119,24.1997165 35.6945001,24.1997165 C49.0013515,24.1997165 59.8031554,34.8079818 59.8031554,47.8912698 M165.827108,47.8912698 C165.827108,55.7553582 159.347239,62.1085942 151.3624,62.1085942 C143.367852,62.1085942 136.884342,55.7553582 136.884342,47.8912698 C136.884342,40.0367513 143.367852,33.6727491 151.3624,33.6727491 C159.347239,33.6727491 165.827108,40.0367513 165.827108,47.8912698 M175.464987,47.8912698 C175.464987,60.9925014 164.672893,71.6007667 151.3624,71.6007667 C138.033703,71.6007667 127.245249,60.9925014 127.245249,47.8912698 C127.245249,34.8079818 138.033703,24.1997165 151.3624,24.1997165 C164.672893,24.1997165 175.464987,34.8079818 175.464987,47.8912698 M50.1555667,47.8912698 C50.1555667,55.7553582 43.6781255,62.1085942 35.6945001,62.1085942 C27.7011653,62.1085942 21.2225103,55.7553582 21.2225103,47.8912698 C21.2225103,40.0367513 27.7011653,33.6727491 35.6945001,33.6727491 C43.6781255,33.6727491 50.1555667,40.0367513 50.1555667,47.8912698"/>
    <polygon fill="#FFF" points="214.822 90.054 218.946 90.054 218.946 4.785 214.822 4.785"/>
    <path fill="#FFF" d="M287.923902,19.1408132 C300.108094,19.1408132 307.464244,25.2559973 306.240849,35.6250144 C305.157027,44.8097529 298.495106,60.5630508 275.558871,60.5630508 L266.751153,60.5630508 L262.442568,75.781629 L243.950851,75.781629 L259.988495,19.1408132 L287.923902,19.1408132 Z M287.29764,39.4290608 C287.711507,35.9228784 285.224665,33.8545777 281.104201,33.8545777 L274.313629,33.8545777 L270.347304,47.8613638 L276.923054,47.8613638 C284.678506,47.8613638 286.931107,42.5345025 287.29764,39.4290608 Z M347.232845,19.1408132 L355.252881,75.781629 L335.486793,75.781629 L334.638427,67.9869226 L314.196316,67.9869226 L308.956835,75.781629 L288.965002,75.781629 L328.951095,19.1408132 L347.232845,19.1408132 Z M322.402046,55.7768905 L333.307013,55.7768905 L331.785051,41.8155617 L322.402046,55.7768905 Z M363.495506,75.7818683 L369.158564,55.7771298 L357.979304,19.1398562 L378.491808,19.1398562 L384.298081,38.1672658 L399.455804,19.1398562 L419.968308,19.1398562 L388.359074,55.7771298 L382.696016,75.7818683 L363.495506,75.7818683 Z"/>
    <g transform="translate(189.072 113.874)">
      <path fill="#FFF" d="M0.0107502067,7.63153899 L0.709162329,1.95708492 L1.23543062,1.95708492 C1.33098801,1.95708492 1.41179022,1.9772589 1.47994512,2.01760686 C1.54669477,2.05795482 1.58112354,2.12334635 1.58112354,2.21517275 C1.58112354,2.23186846 1.57971828,2.2617816 1.57690777,2.30491218 C1.57409726,2.34804277 1.57058412,2.41552126 1.56777361,2.50943462 C1.5649631,2.60195667 1.55934207,2.73343538 1.55091054,2.90247943 C1.75888839,2.59430447 1.99426874,2.34943408 2.25634894,2.16717259 C2.51842914,1.98560675 2.79526453,1.89447601 3.08685511,1.89447601 C3.26602522,1.89447601 3.42973752,1.92717177 3.57658674,1.9925633 C3.7241386,2.05795482 3.84990899,2.15534646 3.95389792,2.28612951 C4.05718422,2.41621691 4.1372838,2.58178269 4.19349403,2.7821312 C4.24970426,2.98178405 4.27780938,3.21621963 4.27780938,3.48543794 C4.27780938,3.72752572 4.25181215,3.96474392 4.20192557,4.19848384 C4.15133636,4.43152811 4.07966831,4.65274625 3.98692143,4.86074696 C3.89487718,5.06874767 3.7845646,5.26074832 3.65738895,5.43605327 C3.52880805,5.61066256 3.38757984,5.76231524 3.23019119,5.88962003 C3.07280255,6.01762046 2.90487448,6.11779471 2.72710963,6.19014279 C2.54934477,6.26249086 2.36455364,6.29796924 2.17343885,6.29796924 C1.98021618,6.29796924 1.80455921,6.26388217 1.6457653,6.19570802 C1.48767403,6.12753388 1.35066159,6.03292486 1.23543062,5.91048966 L1.02112911,7.63153899 L0.0107502067,7.63153899 Z M2.6835467,2.70282658 C2.56831572,2.70282658 2.45167949,2.74108758 2.33363801,2.81760958 C2.21629915,2.89343593 2.10247343,2.99917541 1.99286348,3.1341324 C1.88325353,3.26839372 1.78207512,3.42769861 1.68792298,3.61065575 C1.59377084,3.79430855 1.51296863,3.99117879 1.44551636,4.20265777 L1.32044859,5.23987869 C1.41460073,5.34005294 1.52421068,5.41031405 1.6457653,5.45274897 C1.76731993,5.49448825 1.88887455,5.51466223 2.00972655,5.51466223 C2.19522031,5.51466223 2.36314838,5.45761856 2.514916,5.34422687 C2.66668363,5.23013952 2.79596716,5.08126945 2.90346923,4.89831231 C3.01237655,4.71465951 3.09528664,4.50874577 3.15430738,4.27987542 C3.21332813,4.05030942 3.2428385,3.82074343 3.2428385,3.58978612 C3.2428385,3.28995901 3.19365454,3.06665391 3.09528664,2.92126211 C2.99691874,2.77517465 2.8599063,2.70282658 2.6835467,2.70282658 Z M6.68929856,6.29776054 C6.45040507,6.29776054 6.22977992,6.25880389 6.02672046,6.17949927 C5.82295837,6.10019465 5.64800402,5.98402035 5.50045217,5.83097635 C5.35360294,5.678628 5.23766934,5.49149693 5.15335399,5.26888748 C5.06833602,5.04697368 5.02688097,4.79236412 5.02688097,4.50645011 C5.02688097,4.13705754 5.08660434,3.79270855 5.20605108,3.47340311 C5.32549782,3.15409768 5.48710224,2.87792283 5.69367484,2.6441829 C5.90024744,2.41113863 6.14054617,2.22748583 6.41527368,2.09461582 C6.69070381,1.96105015 6.98369964,1.89426731 7.2949638,1.89426731 C7.53315465,1.89426731 7.75448244,1.93391962 7.9575419,2.01322424 C8.16130398,2.09252885 8.33696096,2.20870316 8.48591807,2.36105151 C8.63417255,2.5140955 8.75080878,2.70122658 8.83512413,2.92383603 C8.91943948,3.14574983 8.96159715,3.39966373 8.96159715,3.68557775 C8.96159715,4.05288335 8.90117115,4.39444972 8.78031915,4.71236385 C8.66016979,5.03027797 8.49575486,5.30714848 8.28988489,5.54227971 C8.08401492,5.77671529 7.84371618,5.9617594 7.56828605,6.09602073 C7.29355854,6.23097771 7.00056271,6.29776054 6.68929856,6.29776054 Z M6.78134281,5.50610568 C6.95559453,5.50610568 7.11298317,5.45671421 7.25280612,5.35862692 C7.3933317,5.25984397 7.51277844,5.12836526 7.61325423,4.96279948 C7.71232476,4.7972337 7.7889112,4.60523305 7.84231092,4.38540622 C7.89500801,4.16627504 7.92170787,3.93601338 7.92170787,3.6939256 C7.92170787,3.34679399 7.8619845,3.09148877 7.74253776,2.9273143 C7.62379365,2.76383548 7.44321828,2.68174825 7.20291954,2.68174825 C7.02866783,2.68174825 6.87127918,2.73044407 6.73145623,2.8278357 C6.59093065,2.92522734 6.47148391,3.05670605 6.37311601,3.22366313 C6.2747481,3.38992457 6.19956692,3.58331653 6.14686983,3.80244771 C6.09347011,4.02227455 6.06606762,4.25392751 6.06606762,4.49810225 C6.06606762,4.84523387 6.12508836,5.10053908 6.24312985,5.26262659 C6.3604687,5.42540975 6.54034144,5.50610568 6.78134281,5.50610568 Z M9.88274231,1.96125884 L10.6689829,1.96125884 C10.7420562,1.96125884 10.8024822,1.97934586 10.8502609,2.0155199 C10.897337,2.05099828 10.9240368,2.09691148 10.9296579,2.15256384 L11.1826039,4.43570204 C11.1966565,4.5602242 11.2043854,4.68126809 11.2057906,4.79813805 C11.2071959,4.91500802 11.210709,5.03118232 11.2156274,5.14805229 C11.2577851,5.03118232 11.3027533,4.91500802 11.3484241,4.79813805 C11.3947975,4.68126809 11.4439815,4.5602242 11.4938681,4.43570204 L12.4325789,2.14421599 C12.4543604,2.08925928 12.4915997,2.04334608 12.5414862,2.00717204 C12.5920755,1.97099801 12.6489883,1.95291099 12.7094143,1.95291099 L13.155583,1.95291099 C13.2286563,1.95291099 13.2862718,1.97099801 13.3284295,2.00717204 C13.3705872,2.04334608 13.3958818,2.08925928 13.4043133,2.14421599 L13.765464,4.43570204 C13.7858402,4.5602242 13.8027033,4.68126809 13.8167559,4.79813805 C13.8301058,4.91500802 13.8434557,5.03118232 13.8546978,5.14805229 C13.8849108,5.03118232 13.9179343,4.91500802 13.9530657,4.79813805 C13.9881971,4.68126809 14.0289495,4.5602242 14.0774308,4.43570204 L14.9149633,2.15256384 C14.9339342,2.09691148 14.9690656,2.05099828 15.0203574,2.0155199 C15.070244,1.97934586 15.1278595,1.96125884 15.1925013,1.96125884 L15.9499341,1.96125884 L14.1701777,6.23536033 L13.3663714,6.23536033 C13.2792455,6.23536033 13.2258458,6.17414273 13.2061722,6.05240319 L12.7944323,3.58213392 C12.7768666,3.47013354 12.7649219,3.36369839 12.7564904,3.26074152 C12.7368168,3.31639388 12.7164406,3.37135059 12.6974696,3.42561165 C12.6777961,3.4798727 12.6567172,3.53413376 12.6342331,3.58978612 L11.6069912,6.05240319 C11.5571046,6.17414273 11.482626,6.23536033 11.3849607,6.23536033 L10.6141779,6.23536033 L9.88274231,1.96125884 Z M20.0149175,2.95242743 C20.0149175,3.14373243 19.976273,3.31903737 19.8989839,3.47764661 C19.8216949,3.63556019 19.6839798,3.77747371 19.4851361,3.90269153 C19.2848871,4.02721369 19.0157807,4.13504015 18.6743035,4.22547524 C18.333529,4.31521467 17.9000076,4.38756274 17.372334,4.43973683 L17.372334,4.49399789 C17.372334,5.16600017 17.6597088,5.50200132 18.2344585,5.50200132 C18.358121,5.50200132 18.4677309,5.49017519 18.5632883,5.46721859 C18.6588457,5.44356633 18.7417558,5.4150445 18.8134238,5.38165308 C18.8850919,5.34826166 18.9497336,5.31069632 19.0073491,5.26895705 C19.064262,5.22721777 19.1176617,5.18965243 19.1668457,5.15626101 C19.2160296,5.12356525 19.2645109,5.09504341 19.3122896,5.0706955 C19.3600683,5.0477389 19.4113602,5.03591277 19.4675704,5.03591277 C19.5012965,5.03591277 19.5350227,5.04356497 19.5687488,5.05817372 C19.602475,5.07417377 19.6305801,5.09713037 19.6530642,5.12704352 L19.9179549,5.44426199 C19.7697004,5.5910451 19.6235538,5.71904553 19.4809203,5.82687199 C19.3375842,5.93608975 19.1914376,6.02443788 19.0424805,6.09400333 C18.894226,6.16356878 18.7368374,6.21435156 18.5717198,6.24774298 C18.4058997,6.28183005 18.2253243,6.29783011 18.0285885,6.29783011 C17.7763451,6.29783011 17.547991,6.25609084 17.3428237,6.17052533 C17.1383589,6.08635113 16.9634046,5.96669855 16.817258,5.8129589 C16.6711114,5.65852359 16.5579883,5.47278383 16.4778887,5.2543483 C16.3977892,5.03660843 16.358442,4.79243369 16.358442,4.52321538 C16.358442,4.29851896 16.383034,4.07730082 16.4322179,3.86095226 C16.4806992,3.64390804 16.5523673,3.43868995 16.6444115,3.24390668 C16.7371584,3.04981907 16.8509841,2.87034019 16.9851861,2.70686138 C17.119388,2.54268691 17.2718582,2.40146903 17.4418942,2.28181645 C17.6112275,2.16285953 17.7981265,2.06894617 18.001186,2.00285898 C18.2042455,1.93607615 18.4227627,1.90268473 18.6560352,1.90268473 C18.882984,1.90268473 19.0811251,1.93468484 19.2518636,1.99868506 C19.4204943,2.06268527 19.5624252,2.14477251 19.6755483,2.24633807 C19.789374,2.34790364 19.8743919,2.46129533 19.9306022,2.58581749 C19.9868124,2.7110353 20.0149175,2.8334705 20.0149175,2.95242743 Z M18.5963118,2.61920891 C18.4564889,2.61920891 18.3258001,2.64773074 18.2049481,2.70477441 C18.0840961,2.76181809 17.9758914,2.8411227 17.8789287,2.94407958 C17.7826687,3.04703645 17.699056,3.1701673 17.6266853,3.31277648 C17.5557199,3.45608132 17.4988071,3.61190793 17.4566494,3.78164764 C17.8044502,3.73434313 18.0840961,3.6828647 18.2962897,3.62790799 C18.5077807,3.57225562 18.671493,3.51103802 18.7881292,3.44425519 C18.9047655,3.37747235 18.9820545,3.30651559 19.0199964,3.23208055 C19.0572357,3.15694986 19.0769093,3.07625394 19.0769093,2.98999278 C19.0769093,2.9482535 19.0670725,2.90581858 19.0495068,2.86129669 C19.0305359,2.81677479 19.0031334,2.77712249 18.9644888,2.74233976 C18.9272496,2.70755703 18.877363,2.67833954 18.816937,2.65468729 C18.7572136,2.63103503 18.6834377,2.61920891 18.5963118,2.61920891 Z M20.771437,6.2354299 L21.2977053,1.95715448 L21.8232709,1.95715448 C21.9244493,1.95715448 22.0080621,1.97941543 22.0720012,2.02324166 C22.1359403,2.06776355 22.1682612,2.13872032 22.1682612,2.23611195 C22.1682612,2.25559028 22.166856,2.2889817 22.1640454,2.3362862 C22.1619376,2.38359071 22.1591271,2.45733009 22.1563165,2.55889566 C22.153506,2.66046122 22.147885,2.80237475 22.1387508,2.98602754 C22.3158131,2.6500264 22.5097384,2.39054726 22.7198241,2.20689446 C22.9299098,2.02324166 23.1491298,1.93211092 23.3760786,1.93211092 C23.4913095,1.93211092 23.6079458,1.95715448 23.7252846,2.00724161 L23.5362777,2.99020147 C23.3957521,2.93176649 23.2629555,2.902549 23.1364824,2.902549 C22.8870495,2.902549 22.6678296,3.02081027 22.480228,3.25663716 C22.2919237,3.4931597 22.1373456,3.86185661 22.0171962,4.36481484 L21.7902474,6.2354299 L20.771437,6.2354299 Z M27.7280152,2.95242743 C27.7280152,3.14373243 27.6893706,3.31903737 27.6120816,3.47764661 C27.5347925,3.63556019 27.3963748,3.77747371 27.1975311,3.90269153 C26.9979848,4.02721369 26.7281757,4.13504015 26.3874012,4.22547524 C26.0466266,4.31521467 25.6131052,4.38756274 25.0854317,4.43973683 L25.0854317,4.49399789 C25.0854317,5.16600017 25.3728065,5.50200132 25.9475561,5.50200132 C26.0712186,5.50200132 26.1801259,5.49017519 26.2756833,5.46721859 C26.3712407,5.44356633 26.4548534,5.4150445 26.5265215,5.38165308 C26.5981895,5.34826166 26.6621287,5.31069632 26.7197442,5.26895705 C26.7773596,5.22721777 26.8307594,5.18965243 26.8799433,5.15626101 C26.9291273,5.12356525 26.976906,5.09504341 27.0253873,5.0706955 C27.073166,5.0477389 27.1244578,5.03591277 27.1806681,5.03591277 C27.2143942,5.03591277 27.2481203,5.04356497 27.2818465,5.05817372 C27.3155726,5.07417377 27.3429751,5.09713037 27.3661618,5.12704352 L27.6310525,5.44426199 C27.4820954,5.5910451 27.3359488,5.71904553 27.1933154,5.82687199 C27.0506819,5.93608975 26.9045353,6.02443788 26.7555782,6.09400333 C26.6073237,6.16356878 26.449935,6.21435156 26.2841149,6.24774298 C26.1189973,6.28183005 25.9377193,6.29783011 25.7409835,6.29783011 C25.4887401,6.29783011 25.2610887,6.25609084 25.0559213,6.17052533 C24.8514566,6.08635113 24.6757996,5.96669855 24.529653,5.8129589 C24.3842091,5.65852359 24.271086,5.47278383 24.1909864,5.2543483 C24.1108868,5.03660843 24.070837,4.79243369 24.070837,4.52321538 C24.070837,4.29851896 24.095429,4.07730082 24.1446129,3.86095226 C24.1937969,3.64390804 24.2647623,3.43868995 24.3575092,3.24390668 C24.4502561,3.04981907 24.5633792,2.87034019 24.6982837,2.70686138 C24.8324856,2.54268691 24.9849559,2.40146903 25.1542892,2.28181645 C25.3243252,2.16285953 25.5105216,2.06894617 25.713581,2.00285898 C25.9173431,1.93607615 26.1351578,1.90268473 26.3684302,1.90268473 C26.595379,1.90268473 26.7942227,1.93468484 26.9642587,1.99868506 C27.133592,2.06268527 27.2755228,2.14477251 27.3886459,2.24633807 C27.5024716,2.34790364 27.586787,2.46129533 27.6429972,2.58581749 C27.6999101,2.7110353 27.7280152,2.8334705 27.7280152,2.95242743 Z M26.3094095,2.61920891 C26.1695865,2.61920891 26.0388977,2.64773074 25.9180457,2.70477441 C25.7971937,2.76181809 25.688989,2.8411227 25.5920264,2.94407958 C25.4957664,3.04703645 25.411451,3.1701673 25.339783,3.31277648 C25.2688176,3.45608132 25.2119047,3.61190793 25.1690444,3.78164764 C25.5175478,3.73434313 25.7971937,3.6828647 26.0086847,3.62790799 C26.2201757,3.57225562 26.3845907,3.51103802 26.5005243,3.44425519 C26.6171605,3.37747235 26.6951522,3.30651559 26.7330941,3.23208055 C26.7703334,3.15694986 26.7893043,3.07625394 26.7893043,2.98999278 C26.7893043,2.9482535 26.7801702,2.90581858 26.7619018,2.86129669 C26.7436335,2.81677479 26.7155284,2.77712249 26.6775865,2.74233976 C26.6403472,2.70755703 26.5904606,2.67833954 26.5300346,2.65468729 C26.4703113,2.63103503 26.3965353,2.61920891 26.3094095,2.61920891 Z M31.4678224,6.2352212 C31.342052,6.2352212 31.2535209,6.20669936 31.2029317,6.14826438 C31.1523425,6.0898294 31.1270479,6.01609002 31.1270479,5.92704624 L31.1614766,5.30234846 C30.9534988,5.60774081 30.7202263,5.85052424 30.4623619,6.02930746 C30.2037948,6.20809067 29.9290673,6.29783011 29.6374767,6.29783011 C29.4583066,6.29783011 29.2945943,6.26513435 29.1477451,6.20043847 C29.0001932,6.13504695 28.8744228,6.03695966 28.7704339,5.9061766 C28.6671476,5.7760892 28.587048,5.61052342 28.5315404,5.41017492 C28.4753302,5.21052206 28.4465225,4.97469518 28.4465225,4.70269425 C28.4465225,4.46060647 28.4725197,4.22408393 28.5224063,3.99173531 C28.5729955,3.76008235 28.6446635,3.53955986 28.7374104,3.33155915 C28.8294547,3.12355845 28.9397672,2.93155779 29.0676455,2.7569485 C29.1948212,2.58164356 29.3374546,2.43068653 29.4948433,2.30268609 C29.6515293,2.17468566 29.8194574,2.07520706 29.9972222,2.00285898 C30.1749871,1.93051091 30.3597782,1.89433688 30.550893,1.89433688 C30.7441157,1.89433688 30.9197726,1.9291196 31.0764586,1.99868506 C31.2331447,2.06825051 31.3715624,2.16285953 31.4889012,2.28181645 L31.7713576,0.044591456 L32.7887628,0.044591456 L32.0186826,6.2352212 L31.4678224,6.2352212 Z M30.0414878,5.49017519 C30.1539082,5.49017519 30.2684366,5.45121853 30.3864781,5.37539219 C30.5045195,5.29887019 30.6176426,5.1931307 30.7272526,5.05817372 C30.8368625,4.92391239 30.938041,4.76530316 31.0328957,4.58373732 C31.1263452,4.40217149 31.2071474,4.20530126 31.2745997,3.99451793 L31.4045859,2.95660136 C31.3097311,2.85434014 31.2001212,2.78199207 31.0764586,2.7402528 C30.9534988,2.69851352 30.8326468,2.67764389 30.7146053,2.67764389 C30.5291115,2.67764389 30.3611835,2.73468756 30.2101185,2.8487749 C30.0583508,2.96216659 29.9290673,3.11103666 29.8208626,3.29399381 C29.7126579,3.47764661 29.6290452,3.68356035 29.5700245,3.91243069 C29.5110037,4.14199669 29.4814933,4.37225834 29.4814933,4.60252 C29.4814933,4.9023471 29.5306773,5.12565221 29.6290452,5.27104401 C29.7274131,5.41713146 29.8644255,5.49017519 30.0414878,5.49017519 Z M35.5195261,6.23536033 L36.2811747,0.0447305869 L37.2957694,0.0447305869 L36.9542923,2.80647911 C37.1566491,2.52613033 37.3821926,2.30421653 37.6302203,2.14004206 C37.8789506,1.97656324 38.1431386,1.89447601 38.4227845,1.89447601 C38.6026573,1.89447601 38.765667,1.92717177 38.9132188,1.9925633 C39.060068,2.05795482 39.1858384,2.15534646 39.2898274,2.28612951 C39.3938163,2.41621691 39.4732132,2.58178269 39.5294235,2.7821312 C39.5856337,2.98178405 39.6144414,3.21621963 39.6144414,3.48543794 C39.6144414,3.72752572 39.5884442,3.96474392 39.537855,4.19848384 C39.4879684,4.43152811 39.4163004,4.65274625 39.3235535,4.86074696 C39.2308066,5.06874767 39.120494,5.26074832 38.9933184,5.43605327 C38.8654401,5.61066256 38.7235093,5.76231524 38.5661206,5.88962003 C38.4094346,6.01762046 38.2415065,6.11779471 38.0630391,6.19014279 C37.8859768,6.26249086 37.7011857,6.29796924 37.5100709,6.29796924 C37.2887431,6.29796924 37.0913047,6.254143 36.9191609,6.16649053 C36.7463144,6.07953371 36.6008704,5.96057679 36.4828289,5.81031541 L36.4505081,5.95222893 C36.4266187,6.05240319 36.3900821,6.12475126 36.3359797,6.1685775 C36.28258,6.21309939 36.1989673,6.23536033 36.0837363,6.23536033 L35.5195261,6.23536033 Z M38.0194761,2.70282658 C37.9042452,2.70282658 37.7876089,2.74178324 37.6695674,2.81900089 C37.5522286,2.8969142 37.4377002,3.004045 37.3273877,3.13969763 C37.2156698,3.27604592 37.1137888,3.43674212 37.0196366,3.62109057 C36.9261871,3.80613468 36.8453849,4.00439622 36.7779327,4.2144839 L36.6521623,5.23570476 C36.747017,5.33866163 36.856627,5.41031405 36.9802895,5.45274897 C37.1032494,5.49448825 37.224804,5.51466223 37.3463586,5.51466223 C37.5311498,5.51466223 37.6997804,5.45761856 37.8515481,5.34422687 C38.0026131,5.23013952 38.1325992,5.08126945 38.2401013,4.89831231 C38.348306,4.71465951 38.4312161,4.50874577 38.4902368,4.27987542 C38.5492576,4.05030942 38.5787679,3.82074343 38.5787679,3.58978612 C38.5787679,3.28995901 38.529584,3.06665391 38.4312161,2.92126211 C38.3328482,2.77517465 38.1958357,2.70282658 38.0194761,2.70282658 Z M41.776849,7.4188774 C41.7037757,7.56079093 41.5913553,7.63174769 41.4402903,7.63174769 L40.6702101,7.63174769 L41.6299998,5.91069836 L40.5395213,1.96146754 L41.4107799,1.96146754 C41.4866637,1.96146754 41.5435766,1.98025021 41.5815185,2.0171199 C41.6187578,2.05468525 41.644755,2.09990279 41.6588075,2.15277254 L42.1892916,4.3691279 C42.205452,4.44147597 42.2195046,4.51173708 42.2293414,4.58130253 C42.2384756,4.65086799 42.2462045,4.72182475 42.2525281,4.79417282 C42.2834437,4.72182475 42.315062,4.65086799 42.3473829,4.57921557 C42.3782985,4.50825881 42.4120246,4.43730204 42.4457508,4.36495397 L43.510232,2.14859861 C43.5383372,2.09294625 43.5790896,2.0477287 43.6324893,2.01294597 C43.685889,1.9788589 43.740694,1.96146754 43.7969042,1.96146754 L44.6302209,1.96146754 L41.776849,7.4188774 Z M21.8000139,33.7942714 C22.0923071,33.7942714 22.3515768,33.9041848 22.5679862,34.1316639 L24.7088934,36.4356717 C23.5228575,37.8875027 22.064202,39.0040283 20.3322243,39.7762048 C18.6016518,40.5546422 16.5239811,40.9379479 14.0949965,40.9379479 C11.9266868,40.9379479 9.97689445,40.5699466 8.24772721,39.8381181 C6.51223633,39.1028112 5.0353125,38.082286 3.80852421,36.7730642 C2.58454643,35.4666249 1.64021454,33.9041848 0.990986375,32.0913091 C0.336137182,30.2777377 0.0108204695,28.2944266 0.0108204695,26.1462454 C0.0108204695,23.9730206 0.371971205,21.9799704 1.10129895,20.1705729 C1.82922145,18.3625668 2.85154503,16.8056919 4.17389071,15.4992527 C5.49272326,14.1886395 7.07293338,13.170897 8.91381845,12.4446336 C10.7504878,11.7162833 12.7852981,11.354543 15.0084128,11.354543 C17.1753172,11.354543 19.0731151,11.6981963 20.6961855,12.385503 C22.319256,13.0707227 23.7139723,13.9834215 24.8712004,15.1194253 L23.0513942,17.6189121 C22.9424869,17.7796083 22.8061771,17.9201305 22.638249,18.0383918 C22.4696183,18.1601313 22.2363459,18.2213489 21.9412421,18.2213489 C21.629978,18.2213489 21.3123902,18.0989137 20.9912892,17.8589129 C20.6673778,17.6189121 20.2556378,17.357346 19.7581773,17.0776928 C19.2579062,16.7980397 18.627649,16.5392562 17.8660004,16.2978641 C17.105757,16.0585589 16.1382384,15.9375151 14.9655525,15.9375151 C13.5912123,15.9375151 12.3292926,16.1761246 11.1776855,16.6491697 C10.0225653,17.123606 9.03396782,17.798391 8.20556954,18.6783939 C7.37857652,19.5604839 6.7307536,20.6324875 6.26561394,21.8930136 C5.80047428,23.1535396 5.56790444,24.5705879 5.56790444,26.1462454 C5.56790444,27.7747727 5.80047428,29.2224298 6.26561394,30.4899124 C6.7307536,31.7587862 7.35960556,32.824529 8.15568296,33.6940972 C8.94754459,34.5608827 9.88625545,35.2238415 10.9640866,35.6829735 C12.0419178,36.1434968 13.2012538,36.3730628 14.4420947,36.3730628 C15.1819619,36.3730628 15.8515662,36.3348018 16.4523131,36.2548015 C17.050952,36.1754969 17.6053254,36.0474965 18.108407,35.8742785 C18.6157043,35.7024518 19.0941939,35.4791467 19.5445784,35.2022762 C19.9977734,34.9316666 20.4439421,34.5942741 20.8880029,34.1928815 C21.0236101,34.0725332 21.1648383,33.9765329 21.3123902,33.9007066 C21.4613473,33.8276628 21.6236543,33.7942714 21.8000139,33.7942714 Z M57.2466775,26.1461759 C57.2466775,28.2686179 56.8911478,30.2331463 56.1765753,32.0432394 C55.4620027,33.8491586 54.4586501,35.4150769 53.1651121,36.7354293 C51.8722768,38.0564772 50.3152534,39.0888286 48.4940419,39.8276137 C46.6749383,40.5684858 44.6612068,40.9378783 42.45355,40.9378783 C40.2402721,40.9378783 38.2244327,40.5684858 36.4004107,39.8276137 C34.570065,39.0888286 33.0095285,38.0564772 31.7096669,36.7354293 C30.4069948,35.4150769 29.4015343,33.8491586 28.6855565,32.0432394 C27.9716865,30.2331463 27.6140489,28.2686179 27.6140489,26.1461759 C27.6140489,24.0237339 27.9716865,22.0592054 28.6855565,20.2491123 C29.4015343,18.4431931 30.4069948,16.8765791 31.7096669,15.5583138 C33.0095285,14.2358745 34.570065,13.2035232 36.4004107,12.464738 C38.2244327,11.7238659 40.2402721,11.3544734 42.45355,11.3544734 C44.6612068,11.3544734 46.6749383,11.7280399 48.4940419,12.4765642 C50.3152534,13.2230015 51.8722768,14.2525702 53.1651121,15.5673573 C54.4586501,16.8800574 55.4620027,18.4431931 56.1765753,20.2491123 C56.8911478,22.0592054 57.2466775,24.0237339 57.2466775,26.1461759 Z M51.6685147,26.1461759 C51.6685147,24.5586922 51.4542132,23.1326004 51.0312312,21.8713787 C50.606844,20.6108527 49.9976656,19.5423273 49.2015882,18.6588461 C48.4083213,17.7802344 47.4408027,17.1047538 46.3011403,16.6386653 C45.1621805,16.1711854 43.8812898,15.9374455 42.45355,15.9374455 C41.0222969,15.9374455 39.7357853,16.1711854 38.5905018,16.6386653 C37.4445157,17.1047538 36.4706735,17.7802344 35.6689751,18.6588461 C34.8679793,19.5423273 34.2538825,20.6108527 33.8210637,21.8713787 C33.3875423,23.1326004 33.1725382,24.5586922 33.1725382,26.1461759 C33.1725382,27.7336595 33.3875423,29.1597513 33.8210637,30.4202773 C34.2538825,31.6808034 34.8679793,32.7479374 35.6689751,33.6230708 C36.4706735,34.4968129 37.4445157,35.1688152 38.5905018,35.6355994 C39.7357853,36.1030793 41.0222969,36.3347322 42.45355,36.3347322 C43.8812898,36.3347322 45.1621805,36.1030793 46.3011403,35.6355994 C47.4408027,35.1688152 48.4083213,34.4968129 49.2015882,33.6230708 C49.9976656,32.7479374 50.606844,31.6808034 51.0312312,30.4202773 C51.4542132,29.1597513 51.6685147,27.7336595 51.6685147,26.1461759 Z M64.5209841,11.3852213 C64.6875069,11.4053953 64.8350587,11.4471346 64.9636396,11.5097435 C65.0957337,11.5688741 65.2243146,11.6586136 65.3465718,11.7740922 C65.4723422,11.8902665 65.6107599,12.0440062 65.7611223,12.2353112 L81.439561,32.0176393 C81.3861613,31.5404203 81.3496246,31.0743317 81.3264379,30.6158954 C81.3081696,30.1588504 81.2969276,29.7331098 81.2969276,29.337978 L81.2969276,11.3546125 L86.1921361,11.3546125 L86.1921361,40.9380175 L83.3233064,40.9380175 C82.8806508,40.9380175 82.5145817,40.8726259 82.2258016,40.7314081 C81.9356163,40.5978424 81.6531599,40.3501894 81.3812429,39.9961012 L65.7611223,20.2951647 C65.8018747,20.7320357 65.8348982,21.1654285 65.8524639,21.5960386 C65.8742454,22.0245618 65.8847848,22.4162153 65.8847848,22.7703035 L65.8847848,40.9380175 L60.9902789,40.9380175 L60.9902789,11.3546125 L63.9012663,11.3546125 C64.1492939,11.3546125 64.3551639,11.3671343 64.5209841,11.3852213 Z M110.530112,11.3543343 L110.530112,15.7334796 L97.2855765,15.7334796 L97.2855765,23.9359423 L107.717493,23.9359423 L107.717493,28.1690001 L97.2855765,28.1690001 L97.2855765,36.5384199 L110.530112,36.5384199 L110.530112,40.9377392 L91.6863348,40.9377392 L91.6863348,11.3543343 L110.530112,11.3543343 Z M120.443068,23.7636982 L121.741524,23.7636982 C122.269197,23.7636982 122.699908,23.6906545 123.044899,23.5494366 C123.38497,23.4068274 123.682885,23.180044 123.930912,22.8628256 L132.168522,12.5379209 C132.513512,12.1031368 132.87396,11.7998314 133.253379,11.6307874 C133.632798,11.458265 134.109883,11.3726995 134.687443,11.3726995 L139.477257,11.3726995 L129.423355,23.661437 C129.107172,24.0433513 128.805745,24.3633524 128.514154,24.6221359 C128.225374,24.8802237 127.91692,25.093094 127.58528,25.2544859 C128.040583,25.419356 128.450918,25.6524003 128.814879,25.9508361 C129.179543,26.2520545 129.533667,26.6325775 129.878657,27.0965791 L140.243121,40.9380175 L135.327537,40.9380175 C134.668472,40.9380175 134.17593,40.8461911 133.852721,40.6618426 C133.528107,40.4767985 133.256892,40.2082758 133.037672,39.853492 L124.592788,28.9358897 C124.318763,28.5811059 124.007499,28.325105 123.663211,28.1685827 C123.318221,28.0127561 122.829894,27.9341472 122.196124,27.9341472 L120.443068,27.9341472 L120.443068,40.9380175 L114.887389,40.9380175 L114.887389,11.3546125 L120.443068,11.3546125 L120.443068,23.7636982 Z M165.767344,11.3543343 L165.754697,15.8767844 L154.707279,15.8767844 L154.707279,40.9377392 L149.148789,40.9377392 L149.148789,15.8767844 L139.679473,15.8767844 L143.387241,11.3543343 L165.767344,11.3543343 Z M189.222047,40.9378783 L184.923369,40.9378783 C184.442772,40.9378783 184.04649,40.8182257 183.735928,40.5789206 C183.424664,40.3410067 183.201931,40.0439622 183.064216,39.6912654 L180.834075,33.655071 L168.456582,33.655071 L166.227144,39.6912654 C166.117534,40.002223 165.899719,40.2888326 165.577916,40.5497031 C165.251194,40.8077909 164.857722,40.9378783 164.388367,40.9378783 L160.070718,40.9378783 L171.804604,11.3544734 L177.486053,11.3544734 L189.222047,40.9378783 Z M169.884322,29.7670577 L179.40774,29.7670577 L175.773046,19.9284156 C175.606524,19.4901532 175.424543,18.9753689 175.223591,18.3819755 C175.024045,17.7878866 174.829417,17.1416235 174.636897,16.4473603 C174.441567,17.1416235 174.253262,17.7927561 174.068471,18.3924104 C173.88087,18.9927602 173.696781,19.5179794 173.520421,19.9701549 L169.884322,29.7670577 Z"/>
      <g fill-rule="nonzero" transform="translate(205.761 14.13)">
        <polygon fill="#00A4AC" points="10.92 12.008 2 0 9.424 0 18.331 12 9.424 24 2 24"/>
        <polygon fill="#EE6130" points="7.926 12.006 9.411 14.007 5.698 19 .5 11.998 5.694 5 9.411 10.002"/>
      </g>
    </g>
  </g>
</svg>
