<?xml version="1.0"?>
<svg xmlns="http://www.w3.org/2000/svg" height="512px" viewBox="0 -2 511.99792 511" width="512px" class=""><g><path d="m489.90625 137.394531c-18.226562-44.882812-52.21875-103.265625-110.726562-126.550781-42.921876-17.085938-92.660157-12.988281-147.820313 12.152344-68.96875 31.441406-91.53125 87.796875-63.496094 158.695312 8.691407 21.988282 5.390625 46.003906-8.84375 64.238282-14.253906 18.265624-36.816406 27.265624-60.304687 24.242187-37.460938-4.910156-66.207032 3.484375-83.175782 24.308594-12.992187 15.953125-24.488281 46.417969-5.53125 100.949219l.355469.886718c1.351563 2.953125 34.207031 72.605469 118.527344 100.484375 18.214844 6.023438 37.082031 7.695313 55.328125 9.304688l2.882812.257812c6.085938.542969 16.597657 1.242188 30.238282 1.242188 34.050781 0 87.652344-4.355469 140.886718-26.382813 77.554688-32.085937 126.757813-89.222656 146.238282-169.828125 13.691406-56.632812 8.652344-116.8125-14.558594-174zm-4.644531 169.355469c-17.910157 74.128906-63.191407 126.691406-134.589844 156.226562-70.394531 29.109376-141.625 25.496094-161.808594 23.707032l-2.894531-.257813c-17.90625-1.582031-34.820312-3.082031-50.863281-8.386719-72.871094-24.09375-103.988281-84.292968-106.617188-89.625-12.269531-35.59375-11.429687-64.496093 2.371094-81.457031 12.417969-15.234375 34.988281-21.160156 65.265625-17.199219 30.59375 4.039063 59.875-7.824218 78.472656-31.667968 18.582032-23.816406 22.917969-55.09375 11.628906-83.660156-24.261718-61.375-6.320312-106.269532 53.324219-133.457032 50.082031-22.820312 94.601563-26.78125 132.316407-11.773437 52.03125 20.703125 82.941406 74.304687 99.722656 115.625 21.664062 53.34375 26.386718 109.324219 13.671875 161.925781zm0 0" data-original="#000000" class="active-path" data-old_color="#000000" fill="#FFFFFF"/><path d="m330.527344 183.648438c27.234375 0 49.390625-22.15625 49.390625-49.394532 0-27.234375-22.15625-49.390625-49.390625-49.390625s-49.390625 22.15625-49.390625 49.390625c0 27.238282 22.15625 49.394532 49.390625 49.394532zm0-79.027344c16.339844 0 29.636718 13.292968 29.636718 29.632812 0 16.34375-13.296874 29.636719-29.636718 29.636719s-29.636719-13.292969-29.636719-29.636719c0-16.339844 13.296875-29.632812 29.636719-29.632812zm0 0" data-original="#000000" class="active-path" data-old_color="#000000" fill="#FFFFFF"/><path d="m472.035156 237.5625c-1.253906-28.253906-7.371094-56.753906-18.632812-84.5-42.890625-105.597656-113.320313-137.722656-208.945313-94.191406-19.144531 8.734375-77.386719 35.289062-45.882812 114.964844 11.464843 29.023437 8.148437 60.21875-9.101563 85.558593-19.527344 28.714844-53.320312 43.738281-88.269531 39.125-26.03125-3.476562-45.558594 1.691407-54.570313 14.386719-9.550781 13.441406-9.464843 36.726562.257813 65.539062l.574219 1.355469c4.929687 9.621094 32.714844 58.65625 95.699218 79.492188 14.316407 4.730469 29.953126 6.113281 46.488282 7.574219l2.796875.246093c8.375.753907 17.367187 1.128907 26.730469 1.128907 186.601562 0 234.808593-116.101563 246.871093-166.027344 4.957031-20.515625 6.84375-41.605469 6.0625-62.84375.058594-.625-.011719-1.207032-.078125-1.808594zm-219.378906-160.710938c25.023438-11.410156 48.066406-17.1875 68.496094-17.1875 48.433594 0 86.769531 33.933594 113.945312 100.828126 8.121094 20.003906 13.277344 40.410156 15.777344 60.78125-44.246094-12.488282-122.609375 26.324218-135.691406 33.0625-59.082032 18.789062-86.445313-8.148438-93.953125-17.679688 6.074219-22.691406 4.851562-46.941406-4.296875-70.078125-21.660156-54.835937 5.902344-76.132813 35.722656-89.726563zm-46.832031 193.65625c2.972656-4.367187 5.511719-8.910156 7.804687-13.535156 11.546875 10.582032 32.105469 23.550782 63.742188 23.550782 12.980468 0 27.828125-2.191407 44.660156-7.625.523438-.167969 1.027344-.378907 1.523438-.632813 38.910156-20.269531 106.339843-44.886719 128.980468-28.90625.40625 18.34375-1.414062 36.527344-5.679687 54.222656-.097657.394531-.21875.832031-.316407 1.234375-21.515624-6.054687-73.691406-12.128906-159.800781 29.171875-29.449219 14.125-54.875 16.882813-75.550781 8.21875-19.992188-8.375-31.183594-25.773437-36.144531-35.550781 11.902343-7.84375 22.453125-17.910156 30.78125-30.148438zm-11.609375 176.921876-2.804688-.25c-15.378906-1.351563-29.898437-2.636719-42.039062-6.648438-54.992188-18.195312-80.035156-61.628906-83.996094-69.117188-8.464844-25.484374-6.925781-41.003906-2.628906-47.070312 4.296875-6.054688 18.167968-8.585938 35.878906-6.242188 19.757812 2.605469 39.148438-.167968 56.722656-7.203124.59375 3.210937 1.214844 6.847656 1.785156 10.765624 5.039063 34.359376 24.222657 65.296876 52.625 84.90625 20.328126 14.019532 34.070313 26.660157 34.691407 41.054688-8.128907.523438-16.488281.859375-25.269531.859375-8.773438-.007813-17.179688-.367187-24.964844-1.054687zm69.988281-1.570313c-1.589844-26.773437-28.023437-45.066406-43.226563-55.558594-17.355468-11.96875-30.613281-28.980469-38.199218-48.472656 5.808594 4.792969 12.617187 9.148437 20.527344 12.496094 26.167968 11.074219 57.105468 8.210937 91.988281-8.523438 80.890625-38.804687 128.179687-32.746093 145.46875-28.035156-16.421875 45.203125-60.320313 113.886719-176.558594 128.09375zm0 0" data-original="#000000" class="active-path" data-old_color="#000000" fill="#FFFFFF"/></g> </svg>
